<mxfile host="app.diagrams.net" agent="Mozilla/5.0 (Windows NT 10.0; Win64; x64) AppleWebKit/537.36 (KHTML, like Gecko) Chrome/130.0.0.0 Safari/537.36 Edg/130.0.0.0" version="24.8.0">
  <diagram name="Page-1" id="74e2e168-ea6b-b213-b513-2b3c1d86103e">
    <mxGraphModel dx="6693" dy="4513" grid="1" gridSize="10" guides="1" tooltips="1" connect="1" arrows="1" fold="1" page="1" pageScale="1" pageWidth="1100" pageHeight="850" background="none" math="0" shadow="0">
      <root>
        <mxCell id="0" />
        <mxCell id="1" parent="0" />
        <mxCell id="bwkymRaFix-13DGY9n31-21" value="&lt;font style=&quot;font-size: 20px;&quot;&gt;开始&lt;/font&gt;" style="swimlane;whiteSpace=wrap;html=1;startSize=23;" parent="1" vertex="1">
          <mxGeometry x="-1120" y="80" width="1360" height="1840" as="geometry" />
        </mxCell>
        <mxCell id="bwkymRaFix-13DGY9n31-32" value="" style="edgeStyle=orthogonalEdgeStyle;rounded=0;orthogonalLoop=1;jettySize=auto;html=1;" parent="bwkymRaFix-13DGY9n31-21" source="bwkymRaFix-13DGY9n31-30" target="bwkymRaFix-13DGY9n31-31" edge="1">
          <mxGeometry relative="1" as="geometry" />
        </mxCell>
        <mxCell id="bwkymRaFix-13DGY9n31-30" value="开始" style="rounded=1;whiteSpace=wrap;html=1;" parent="bwkymRaFix-13DGY9n31-21" vertex="1">
          <mxGeometry x="40" y="40" width="120" height="60" as="geometry" />
        </mxCell>
        <mxCell id="MG4wYzX_MJgmjz2E4Kdr-43" style="edgeStyle=orthogonalEdgeStyle;rounded=0;orthogonalLoop=1;jettySize=auto;html=1;exitX=0.5;exitY=1;exitDx=0;exitDy=0;entryX=0.25;entryY=0;entryDx=0;entryDy=0;fillColor=#f8cecc;strokeColor=#b85450;" edge="1" parent="bwkymRaFix-13DGY9n31-21" source="bwkymRaFix-13DGY9n31-31" target="MG4wYzX_MJgmjz2E4Kdr-8">
          <mxGeometry relative="1" as="geometry">
            <Array as="points">
              <mxPoint x="100" y="430" />
              <mxPoint x="430" y="430" />
            </Array>
          </mxGeometry>
        </mxCell>
        <mxCell id="MG4wYzX_MJgmjz2E4Kdr-44" style="edgeStyle=orthogonalEdgeStyle;rounded=0;orthogonalLoop=1;jettySize=auto;html=1;exitX=0.5;exitY=1;exitDx=0;exitDy=0;entryX=0.25;entryY=0;entryDx=0;entryDy=0;fillColor=#f8cecc;strokeColor=#b85450;" edge="1" parent="bwkymRaFix-13DGY9n31-21" source="bwkymRaFix-13DGY9n31-31" target="MG4wYzX_MJgmjz2E4Kdr-20">
          <mxGeometry relative="1" as="geometry">
            <Array as="points">
              <mxPoint x="100" y="430" />
              <mxPoint x="630" y="430" />
            </Array>
          </mxGeometry>
        </mxCell>
        <mxCell id="MG4wYzX_MJgmjz2E4Kdr-45" style="edgeStyle=orthogonalEdgeStyle;rounded=0;orthogonalLoop=1;jettySize=auto;html=1;exitX=0.5;exitY=1;exitDx=0;exitDy=0;entryX=0.25;entryY=0;entryDx=0;entryDy=0;fillColor=#f8cecc;strokeColor=#b85450;" edge="1" parent="bwkymRaFix-13DGY9n31-21" source="bwkymRaFix-13DGY9n31-31" target="MG4wYzX_MJgmjz2E4Kdr-27">
          <mxGeometry relative="1" as="geometry">
            <Array as="points">
              <mxPoint x="100" y="430" />
              <mxPoint x="830" y="430" />
            </Array>
          </mxGeometry>
        </mxCell>
        <mxCell id="MG4wYzX_MJgmjz2E4Kdr-236" style="edgeStyle=orthogonalEdgeStyle;rounded=0;orthogonalLoop=1;jettySize=auto;html=1;exitX=0.5;exitY=1;exitDx=0;exitDy=0;entryX=0.25;entryY=0;entryDx=0;entryDy=0;fillColor=#f8cecc;strokeColor=#b85450;" edge="1" parent="bwkymRaFix-13DGY9n31-21" source="bwkymRaFix-13DGY9n31-31" target="MG4wYzX_MJgmjz2E4Kdr-232">
          <mxGeometry relative="1" as="geometry">
            <Array as="points">
              <mxPoint x="100" y="430" />
              <mxPoint x="1030" y="430" />
            </Array>
          </mxGeometry>
        </mxCell>
        <mxCell id="bwkymRaFix-13DGY9n31-31" value="时间信息&lt;div&gt;timestamp&lt;/div&gt;" style="shape=parallelogram;perimeter=parallelogramPerimeter;whiteSpace=wrap;html=1;fixedSize=1;fillColor=#f8cecc;strokeColor=#b85450;" parent="bwkymRaFix-13DGY9n31-21" vertex="1">
          <mxGeometry x="40" y="158" width="120" height="60" as="geometry" />
        </mxCell>
        <mxCell id="MG4wYzX_MJgmjz2E4Kdr-5" style="edgeStyle=orthogonalEdgeStyle;rounded=0;orthogonalLoop=1;jettySize=auto;html=1;exitX=0.5;exitY=1;exitDx=0;exitDy=0;entryX=0.5;entryY=0;entryDx=0;entryDy=0;fillColor=#dae8fc;strokeColor=#6c8ebf;" edge="1" parent="bwkymRaFix-13DGY9n31-21" source="bwkymRaFix-13DGY9n31-35" target="MG4wYzX_MJgmjz2E4Kdr-4">
          <mxGeometry relative="1" as="geometry" />
        </mxCell>
        <mxCell id="bwkymRaFix-13DGY9n31-35" value="要处理的文稿的地址&lt;div&gt;text_file_path&lt;/div&gt;" style="shape=parallelogram;perimeter=parallelogramPerimeter;whiteSpace=wrap;html=1;fixedSize=1;fillColor=#dae8fc;strokeColor=#6c8ebf;" parent="bwkymRaFix-13DGY9n31-21" vertex="1">
          <mxGeometry x="200" y="40" width="120" height="60" as="geometry" />
        </mxCell>
        <mxCell id="MG4wYzX_MJgmjz2E4Kdr-40" style="edgeStyle=orthogonalEdgeStyle;rounded=0;orthogonalLoop=1;jettySize=auto;html=1;exitX=0.5;exitY=1;exitDx=0;exitDy=0;entryX=0.75;entryY=0;entryDx=0;entryDy=0;fillColor=#e1d5e7;strokeColor=#9673a6;" edge="1" parent="bwkymRaFix-13DGY9n31-21" source="bwkymRaFix-13DGY9n31-40" target="MG4wYzX_MJgmjz2E4Kdr-8">
          <mxGeometry relative="1" as="geometry">
            <Array as="points">
              <mxPoint x="260" y="390" />
              <mxPoint x="490" y="390" />
            </Array>
          </mxGeometry>
        </mxCell>
        <mxCell id="MG4wYzX_MJgmjz2E4Kdr-41" style="edgeStyle=orthogonalEdgeStyle;rounded=0;orthogonalLoop=1;jettySize=auto;html=1;exitX=0.5;exitY=1;exitDx=0;exitDy=0;entryX=0.75;entryY=0;entryDx=0;entryDy=0;fillColor=#e1d5e7;strokeColor=#9673a6;" edge="1" parent="bwkymRaFix-13DGY9n31-21" source="bwkymRaFix-13DGY9n31-40" target="MG4wYzX_MJgmjz2E4Kdr-20">
          <mxGeometry relative="1" as="geometry">
            <Array as="points">
              <mxPoint x="260" y="390" />
              <mxPoint x="690" y="390" />
            </Array>
          </mxGeometry>
        </mxCell>
        <mxCell id="MG4wYzX_MJgmjz2E4Kdr-42" style="edgeStyle=orthogonalEdgeStyle;rounded=0;orthogonalLoop=1;jettySize=auto;html=1;exitX=0.5;exitY=1;exitDx=0;exitDy=0;entryX=0.75;entryY=0;entryDx=0;entryDy=0;fillColor=#e1d5e7;strokeColor=#9673a6;" edge="1" parent="bwkymRaFix-13DGY9n31-21" source="bwkymRaFix-13DGY9n31-40" target="MG4wYzX_MJgmjz2E4Kdr-27">
          <mxGeometry relative="1" as="geometry">
            <Array as="points">
              <mxPoint x="260" y="390" />
              <mxPoint x="890" y="390" />
            </Array>
          </mxGeometry>
        </mxCell>
        <mxCell id="MG4wYzX_MJgmjz2E4Kdr-235" style="edgeStyle=orthogonalEdgeStyle;rounded=0;orthogonalLoop=1;jettySize=auto;html=1;exitX=0.5;exitY=1;exitDx=0;exitDy=0;entryX=0.75;entryY=0;entryDx=0;entryDy=0;fillColor=#e1d5e7;strokeColor=#9673a6;" edge="1" parent="bwkymRaFix-13DGY9n31-21" source="bwkymRaFix-13DGY9n31-40" target="MG4wYzX_MJgmjz2E4Kdr-232">
          <mxGeometry relative="1" as="geometry">
            <Array as="points">
              <mxPoint x="260" y="390" />
              <mxPoint x="1090" y="390" />
            </Array>
          </mxGeometry>
        </mxCell>
        <mxCell id="bwkymRaFix-13DGY9n31-40" value="文稿txt文件的名称（带后缀）&lt;div&gt;text_file_name&lt;/div&gt;" style="shape=parallelogram;perimeter=parallelogramPerimeter;whiteSpace=wrap;html=1;fixedSize=1;fillColor=#e1d5e7;strokeColor=#9673a6;" parent="bwkymRaFix-13DGY9n31-21" vertex="1">
          <mxGeometry x="200" y="280" width="120" height="60" as="geometry" />
        </mxCell>
        <mxCell id="MG4wYzX_MJgmjz2E4Kdr-15" style="edgeStyle=orthogonalEdgeStyle;rounded=0;orthogonalLoop=1;jettySize=auto;html=1;exitX=0.5;exitY=1;exitDx=0;exitDy=0;entryX=0.5;entryY=0;entryDx=0;entryDy=0;" edge="1" parent="bwkymRaFix-13DGY9n31-21" source="bwkymRaFix-13DGY9n31-42" target="MG4wYzX_MJgmjz2E4Kdr-8">
          <mxGeometry relative="1" as="geometry" />
        </mxCell>
        <mxCell id="bwkymRaFix-13DGY9n31-42" value="Paragraphs根输出目录&lt;div&gt;base_Paragraphs_output_path&lt;/div&gt;" style="shape=parallelogram;perimeter=parallelogramPerimeter;whiteSpace=wrap;html=1;fixedSize=1;" parent="bwkymRaFix-13DGY9n31-21" vertex="1">
          <mxGeometry x="400" y="40" width="120" height="60" as="geometry" />
        </mxCell>
        <mxCell id="MG4wYzX_MJgmjz2E4Kdr-6" style="edgeStyle=orthogonalEdgeStyle;rounded=0;orthogonalLoop=1;jettySize=auto;html=1;exitX=0.5;exitY=1;exitDx=0;exitDy=0;entryX=0.5;entryY=0;entryDx=0;entryDy=0;" edge="1" parent="bwkymRaFix-13DGY9n31-21" source="MG4wYzX_MJgmjz2E4Kdr-4" target="bwkymRaFix-13DGY9n31-40">
          <mxGeometry relative="1" as="geometry" />
        </mxCell>
        <mxCell id="MG4wYzX_MJgmjz2E4Kdr-4" value="&lt;div&gt;获取文稿txt文件的名称（带后缀）&lt;/div&gt;text_file_name = os.path.base(text_file_path)" style="rounded=0;whiteSpace=wrap;html=1;" vertex="1" parent="bwkymRaFix-13DGY9n31-21">
          <mxGeometry x="200" y="158" width="120" height="60" as="geometry" />
        </mxCell>
        <mxCell id="MG4wYzX_MJgmjz2E4Kdr-16" style="edgeStyle=orthogonalEdgeStyle;rounded=0;orthogonalLoop=1;jettySize=auto;html=1;exitX=0.5;exitY=1;exitDx=0;exitDy=0;" edge="1" parent="bwkymRaFix-13DGY9n31-21" source="MG4wYzX_MJgmjz2E4Kdr-8" target="MG4wYzX_MJgmjz2E4Kdr-9">
          <mxGeometry relative="1" as="geometry" />
        </mxCell>
        <mxCell id="MG4wYzX_MJgmjz2E4Kdr-8" value="创建文件名和当前时间结合的文件夹&lt;br&gt;&lt;div&gt;&lt;span style=&quot;background-color: initial;&quot;&gt;Paragraphs_output_path =&amp;nbsp;&lt;/span&gt;create_output_folder(timestamp, base_Paragraphs_output_path, text_file_name)&lt;/div&gt;" style="rounded=0;whiteSpace=wrap;html=1;" vertex="1" parent="bwkymRaFix-13DGY9n31-21">
          <mxGeometry x="400" y="520" width="120" height="60" as="geometry" />
        </mxCell>
        <mxCell id="MG4wYzX_MJgmjz2E4Kdr-9" value="Paragraphs_output_path" style="shape=parallelogram;perimeter=parallelogramPerimeter;whiteSpace=wrap;html=1;fixedSize=1;fillColor=#0050ef;fontColor=#ffffff;strokeColor=#001DBC;" vertex="1" parent="bwkymRaFix-13DGY9n31-21">
          <mxGeometry x="400" y="640" width="120" height="60" as="geometry" />
        </mxCell>
        <mxCell id="MG4wYzX_MJgmjz2E4Kdr-17" style="edgeStyle=orthogonalEdgeStyle;rounded=0;orthogonalLoop=1;jettySize=auto;html=1;exitX=0.5;exitY=1;exitDx=0;exitDy=0;entryX=0.5;entryY=0;entryDx=0;entryDy=0;" edge="1" parent="bwkymRaFix-13DGY9n31-21" source="MG4wYzX_MJgmjz2E4Kdr-18" target="MG4wYzX_MJgmjz2E4Kdr-20">
          <mxGeometry relative="1" as="geometry" />
        </mxCell>
        <mxCell id="MG4wYzX_MJgmjz2E4Kdr-18" value="GPT-SoVITS根输出目录&lt;div&gt;base_GSV_output_path&lt;/div&gt;" style="shape=parallelogram;perimeter=parallelogramPerimeter;whiteSpace=wrap;html=1;fixedSize=1;" vertex="1" parent="bwkymRaFix-13DGY9n31-21">
          <mxGeometry x="600" y="40" width="120" height="60" as="geometry" />
        </mxCell>
        <mxCell id="MG4wYzX_MJgmjz2E4Kdr-19" style="edgeStyle=orthogonalEdgeStyle;rounded=0;orthogonalLoop=1;jettySize=auto;html=1;exitX=0.5;exitY=1;exitDx=0;exitDy=0;" edge="1" parent="bwkymRaFix-13DGY9n31-21" source="MG4wYzX_MJgmjz2E4Kdr-20" target="MG4wYzX_MJgmjz2E4Kdr-21">
          <mxGeometry relative="1" as="geometry" />
        </mxCell>
        <mxCell id="MG4wYzX_MJgmjz2E4Kdr-20" value="创建文件名和当前时间结合的文件夹&lt;br&gt;&lt;div&gt;&lt;span style=&quot;background-color: initial;&quot;&gt;GSV_output_path =&amp;nbsp;&lt;/span&gt;create_output_folder(timestamp, base_GSV_output_path, text_file_name)&lt;/div&gt;" style="rounded=0;whiteSpace=wrap;html=1;" vertex="1" parent="bwkymRaFix-13DGY9n31-21">
          <mxGeometry x="600" y="520" width="120" height="60" as="geometry" />
        </mxCell>
        <mxCell id="MG4wYzX_MJgmjz2E4Kdr-21" value="GSV_output_path" style="shape=parallelogram;perimeter=parallelogramPerimeter;whiteSpace=wrap;html=1;fixedSize=1;fillColor=#6a00ff;fontColor=#ffffff;strokeColor=#3700CC;" vertex="1" parent="bwkymRaFix-13DGY9n31-21">
          <mxGeometry x="600" y="640" width="120" height="60" as="geometry" />
        </mxCell>
        <mxCell id="MG4wYzX_MJgmjz2E4Kdr-24" style="edgeStyle=orthogonalEdgeStyle;rounded=0;orthogonalLoop=1;jettySize=auto;html=1;exitX=0.5;exitY=1;exitDx=0;exitDy=0;entryX=0.5;entryY=0;entryDx=0;entryDy=0;" edge="1" parent="bwkymRaFix-13DGY9n31-21" source="MG4wYzX_MJgmjz2E4Kdr-25" target="MG4wYzX_MJgmjz2E4Kdr-27">
          <mxGeometry relative="1" as="geometry" />
        </mxCell>
        <mxCell id="MG4wYzX_MJgmjz2E4Kdr-25" value="SadTalker根输出目录&lt;div&gt;base_SD_output_path&lt;/div&gt;" style="shape=parallelogram;perimeter=parallelogramPerimeter;whiteSpace=wrap;html=1;fixedSize=1;" vertex="1" parent="bwkymRaFix-13DGY9n31-21">
          <mxGeometry x="800" y="40" width="120" height="60" as="geometry" />
        </mxCell>
        <mxCell id="MG4wYzX_MJgmjz2E4Kdr-26" style="edgeStyle=orthogonalEdgeStyle;rounded=0;orthogonalLoop=1;jettySize=auto;html=1;exitX=0.5;exitY=1;exitDx=0;exitDy=0;" edge="1" parent="bwkymRaFix-13DGY9n31-21" source="MG4wYzX_MJgmjz2E4Kdr-27" target="MG4wYzX_MJgmjz2E4Kdr-28">
          <mxGeometry relative="1" as="geometry" />
        </mxCell>
        <mxCell id="MG4wYzX_MJgmjz2E4Kdr-27" value="创建以文件和当前时间结合的文件夹&lt;br&gt;&lt;div&gt;&lt;span style=&quot;background-color: initial;&quot;&gt;SD_output_path =&amp;nbsp;&lt;/span&gt;create_output_folder(timestamp, base_SD_output_path, text_file_name)&lt;/div&gt;" style="rounded=0;whiteSpace=wrap;html=1;" vertex="1" parent="bwkymRaFix-13DGY9n31-21">
          <mxGeometry x="800" y="520" width="120" height="60" as="geometry" />
        </mxCell>
        <mxCell id="MG4wYzX_MJgmjz2E4Kdr-28" value="SD_output_path" style="shape=parallelogram;perimeter=parallelogramPerimeter;whiteSpace=wrap;html=1;fixedSize=1;fillColor=#1ba1e2;fontColor=#ffffff;strokeColor=#006EAF;" vertex="1" parent="bwkymRaFix-13DGY9n31-21">
          <mxGeometry x="800" y="640" width="120" height="60" as="geometry" />
        </mxCell>
        <mxCell id="MG4wYzX_MJgmjz2E4Kdr-34" value="创建一个空的视频列表&lt;div&gt;video_files = []&lt;/div&gt;" style="shape=parallelogram;perimeter=parallelogramPerimeter;whiteSpace=wrap;html=1;fixedSize=1;" vertex="1" parent="bwkymRaFix-13DGY9n31-21">
          <mxGeometry x="1200" y="40" width="120" height="60" as="geometry" />
        </mxCell>
        <mxCell id="MG4wYzX_MJgmjz2E4Kdr-234" style="edgeStyle=orthogonalEdgeStyle;rounded=0;orthogonalLoop=1;jettySize=auto;html=1;exitX=0.5;exitY=1;exitDx=0;exitDy=0;entryX=0.5;entryY=0;entryDx=0;entryDy=0;" edge="1" parent="bwkymRaFix-13DGY9n31-21" source="MG4wYzX_MJgmjz2E4Kdr-231" target="MG4wYzX_MJgmjz2E4Kdr-232">
          <mxGeometry relative="1" as="geometry" />
        </mxCell>
        <mxCell id="MG4wYzX_MJgmjz2E4Kdr-231" value="VideoMerging根输出目录&lt;div&gt;base_VideoMerging_output_path&lt;/div&gt;" style="shape=parallelogram;perimeter=parallelogramPerimeter;whiteSpace=wrap;html=1;fixedSize=1;" vertex="1" parent="bwkymRaFix-13DGY9n31-21">
          <mxGeometry x="1000" y="40" width="120" height="60" as="geometry" />
        </mxCell>
        <mxCell id="MG4wYzX_MJgmjz2E4Kdr-238" style="edgeStyle=orthogonalEdgeStyle;rounded=0;orthogonalLoop=1;jettySize=auto;html=1;exitX=0.5;exitY=1;exitDx=0;exitDy=0;entryX=0.5;entryY=0;entryDx=0;entryDy=0;" edge="1" parent="bwkymRaFix-13DGY9n31-21" source="MG4wYzX_MJgmjz2E4Kdr-232" target="MG4wYzX_MJgmjz2E4Kdr-237">
          <mxGeometry relative="1" as="geometry" />
        </mxCell>
        <mxCell id="MG4wYzX_MJgmjz2E4Kdr-232" value="创建以文件和当前时间结合的文件夹&lt;br&gt;&lt;div&gt;&lt;span style=&quot;background-color: initial;&quot;&gt;VideoMerging_output_path =&amp;nbsp;&lt;/span&gt;create_output_folder(timestamp, base_VideoMerging_output_path, text_file_name)&lt;/div&gt;" style="rounded=0;whiteSpace=wrap;html=1;" vertex="1" parent="bwkymRaFix-13DGY9n31-21">
          <mxGeometry x="1000" y="520" width="120" height="60" as="geometry" />
        </mxCell>
        <mxCell id="MG4wYzX_MJgmjz2E4Kdr-237" value="VideoMerging_output_path" style="shape=parallelogram;perimeter=parallelogramPerimeter;whiteSpace=wrap;html=1;fixedSize=1;fillColor=#a20025;fontColor=#ffffff;strokeColor=#6F0000;" vertex="1" parent="bwkymRaFix-13DGY9n31-21">
          <mxGeometry x="1000" y="640" width="120" height="60" as="geometry" />
        </mxCell>
        <mxCell id="bwkymRaFix-13DGY9n31-22" value="&lt;font style=&quot;font-size: 20px;&quot;&gt;段落分割&lt;/font&gt;" style="swimlane;whiteSpace=wrap;html=1;" parent="1" vertex="1">
          <mxGeometry x="240" y="80" width="360" height="1840" as="geometry" />
        </mxCell>
        <mxCell id="MG4wYzX_MJgmjz2E4Kdr-52" style="edgeStyle=orthogonalEdgeStyle;rounded=0;orthogonalLoop=1;jettySize=auto;html=1;exitX=0.5;exitY=1;exitDx=0;exitDy=0;entryX=0.5;entryY=0;entryDx=0;entryDy=0;" edge="1" parent="bwkymRaFix-13DGY9n31-22" source="bwkymRaFix-13DGY9n31-34" target="bwkymRaFix-13DGY9n31-37">
          <mxGeometry relative="1" as="geometry" />
        </mxCell>
        <mxCell id="bwkymRaFix-13DGY9n31-34" value="使用“通义千问”对文本进行分段，传出分好段的文本（每段\n\n分隔）(str)并存在text_para里&lt;div&gt;text_para = call_with_message(text)&lt;/div&gt;" style="rounded=0;whiteSpace=wrap;html=1;" parent="bwkymRaFix-13DGY9n31-22" vertex="1">
          <mxGeometry x="40" y="400" width="120" height="60" as="geometry" />
        </mxCell>
        <mxCell id="MG4wYzX_MJgmjz2E4Kdr-54" style="edgeStyle=orthogonalEdgeStyle;rounded=0;orthogonalLoop=1;jettySize=auto;html=1;exitX=0.5;exitY=1;exitDx=0;exitDy=0;entryX=0.5;entryY=0;entryDx=0;entryDy=0;" edge="1" parent="bwkymRaFix-13DGY9n31-22" source="bwkymRaFix-13DGY9n31-37" target="MG4wYzX_MJgmjz2E4Kdr-53">
          <mxGeometry relative="1" as="geometry" />
        </mxCell>
        <mxCell id="MG4wYzX_MJgmjz2E4Kdr-59" style="edgeStyle=orthogonalEdgeStyle;rounded=0;orthogonalLoop=1;jettySize=auto;html=1;exitX=0.5;exitY=1;exitDx=0;exitDy=0;entryX=0.5;entryY=0;entryDx=0;entryDy=0;" edge="1" parent="bwkymRaFix-13DGY9n31-22" source="bwkymRaFix-13DGY9n31-37" target="MG4wYzX_MJgmjz2E4Kdr-56">
          <mxGeometry relative="1" as="geometry">
            <Array as="points">
              <mxPoint x="100" y="670" />
              <mxPoint x="260" y="670" />
            </Array>
          </mxGeometry>
        </mxCell>
        <mxCell id="bwkymRaFix-13DGY9n31-37" value="text_para" style="shape=parallelogram;perimeter=parallelogramPerimeter;whiteSpace=wrap;html=1;fixedSize=1;" parent="bwkymRaFix-13DGY9n31-22" vertex="1">
          <mxGeometry x="40" y="520" width="120" height="60" as="geometry" />
        </mxCell>
        <mxCell id="MG4wYzX_MJgmjz2E4Kdr-50" style="edgeStyle=orthogonalEdgeStyle;rounded=0;orthogonalLoop=1;jettySize=auto;html=1;exitX=0.5;exitY=1;exitDx=0;exitDy=0;entryX=0.5;entryY=0;entryDx=0;entryDy=0;" edge="1" parent="bwkymRaFix-13DGY9n31-22" source="MG4wYzX_MJgmjz2E4Kdr-46" target="MG4wYzX_MJgmjz2E4Kdr-48">
          <mxGeometry relative="1" as="geometry" />
        </mxCell>
        <mxCell id="MG4wYzX_MJgmjz2E4Kdr-46" value="从文本文件路径所对应的文本文件中读出文本，存到text里&lt;div&gt;text = read_text_from_file&amp;nbsp;&lt;/div&gt;" style="rounded=0;whiteSpace=wrap;html=1;" vertex="1" parent="bwkymRaFix-13DGY9n31-22">
          <mxGeometry x="40" y="160" width="120" height="60" as="geometry" />
        </mxCell>
        <mxCell id="MG4wYzX_MJgmjz2E4Kdr-51" style="edgeStyle=orthogonalEdgeStyle;rounded=0;orthogonalLoop=1;jettySize=auto;html=1;exitX=0.5;exitY=1;exitDx=0;exitDy=0;entryX=0.5;entryY=0;entryDx=0;entryDy=0;" edge="1" parent="bwkymRaFix-13DGY9n31-22" source="MG4wYzX_MJgmjz2E4Kdr-48" target="bwkymRaFix-13DGY9n31-34">
          <mxGeometry relative="1" as="geometry" />
        </mxCell>
        <mxCell id="MG4wYzX_MJgmjz2E4Kdr-48" value="text" style="shape=parallelogram;perimeter=parallelogramPerimeter;whiteSpace=wrap;html=1;fixedSize=1;" vertex="1" parent="bwkymRaFix-13DGY9n31-22">
          <mxGeometry x="40" y="280" width="120" height="60" as="geometry" />
        </mxCell>
        <mxCell id="MG4wYzX_MJgmjz2E4Kdr-127" style="edgeStyle=orthogonalEdgeStyle;rounded=0;orthogonalLoop=1;jettySize=auto;html=1;exitX=0.5;exitY=1;exitDx=0;exitDy=0;entryX=0.5;entryY=0;entryDx=0;entryDy=0;" edge="1" parent="bwkymRaFix-13DGY9n31-22" source="MG4wYzX_MJgmjz2E4Kdr-53" target="MG4wYzX_MJgmjz2E4Kdr-126">
          <mxGeometry relative="1" as="geometry" />
        </mxCell>
        <mxCell id="MG4wYzX_MJgmjz2E4Kdr-53" value="将text_para存到文件夹目录为Paragraphs_output_path里的text_para.txt文件中&lt;div&gt;save_files(text_para, Paragraphs_output_path, &#39;text_para&#39;)&lt;/div&gt;" style="rounded=0;whiteSpace=wrap;html=1;" vertex="1" parent="bwkymRaFix-13DGY9n31-22">
          <mxGeometry x="40" y="760" width="120" height="60" as="geometry" />
        </mxCell>
        <mxCell id="MG4wYzX_MJgmjz2E4Kdr-58" style="edgeStyle=orthogonalEdgeStyle;rounded=0;orthogonalLoop=1;jettySize=auto;html=1;exitX=0.5;exitY=1;exitDx=0;exitDy=0;entryX=0.5;entryY=0;entryDx=0;entryDy=0;" edge="1" parent="bwkymRaFix-13DGY9n31-22" source="MG4wYzX_MJgmjz2E4Kdr-56" target="MG4wYzX_MJgmjz2E4Kdr-57">
          <mxGeometry relative="1" as="geometry" />
        </mxCell>
        <mxCell id="MG4wYzX_MJgmjz2E4Kdr-56" value="使用&#39;\n\n&#39;分隔text_para，存储到paragraphs中&lt;div&gt;paragraphs = text_para.split(&#39;\n\n&#39;)&lt;/div&gt;" style="rounded=0;whiteSpace=wrap;html=1;" vertex="1" parent="bwkymRaFix-13DGY9n31-22">
          <mxGeometry x="200" y="760" width="120" height="60" as="geometry" />
        </mxCell>
        <mxCell id="MG4wYzX_MJgmjz2E4Kdr-57" value="paragraphs" style="shape=parallelogram;perimeter=parallelogramPerimeter;whiteSpace=wrap;html=1;fixedSize=1;" vertex="1" parent="bwkymRaFix-13DGY9n31-22">
          <mxGeometry x="200" y="880" width="120" height="60" as="geometry" />
        </mxCell>
        <mxCell id="MG4wYzX_MJgmjz2E4Kdr-55" style="edgeStyle=orthogonalEdgeStyle;rounded=0;orthogonalLoop=1;jettySize=auto;html=1;exitX=0.5;exitY=1;exitDx=0;exitDy=0;entryX=0.25;entryY=0;entryDx=0;entryDy=0;fillColor=#0050ef;strokeColor=#001DBC;" edge="1" parent="bwkymRaFix-13DGY9n31-22" source="MG4wYzX_MJgmjz2E4Kdr-9" target="MG4wYzX_MJgmjz2E4Kdr-53">
          <mxGeometry relative="1" as="geometry">
            <Array as="points">
              <mxPoint x="-900" y="730" />
              <mxPoint x="70" y="730" />
            </Array>
          </mxGeometry>
        </mxCell>
        <mxCell id="MG4wYzX_MJgmjz2E4Kdr-126" value="text_para.txt" style="shape=parallelogram;perimeter=parallelogramPerimeter;whiteSpace=wrap;html=1;fixedSize=1;" vertex="1" parent="bwkymRaFix-13DGY9n31-22">
          <mxGeometry x="40" y="1720" width="120" height="60" as="geometry" />
        </mxCell>
        <mxCell id="bwkymRaFix-13DGY9n31-25" value="&lt;font style=&quot;font-size: 20px;&quot;&gt;段落分配&lt;/font&gt;" style="swimlane;whiteSpace=wrap;html=1;" parent="1" vertex="1">
          <mxGeometry x="600" y="80" width="680" height="1840" as="geometry" />
        </mxCell>
        <mxCell id="MG4wYzX_MJgmjz2E4Kdr-69" style="edgeStyle=orthogonalEdgeStyle;rounded=0;orthogonalLoop=1;jettySize=auto;html=1;exitX=0.5;exitY=1;exitDx=0;exitDy=0;entryX=0.5;entryY=0;entryDx=0;entryDy=0;" edge="1" parent="bwkymRaFix-13DGY9n31-25" source="MG4wYzX_MJgmjz2E4Kdr-63" target="MG4wYzX_MJgmjz2E4Kdr-67">
          <mxGeometry relative="1" as="geometry" />
        </mxCell>
        <mxCell id="MG4wYzX_MJgmjz2E4Kdr-70" style="edgeStyle=orthogonalEdgeStyle;rounded=0;orthogonalLoop=1;jettySize=auto;html=1;exitX=0.5;exitY=1;exitDx=0;exitDy=0;entryX=0.5;entryY=0;entryDx=0;entryDy=0;" edge="1" parent="bwkymRaFix-13DGY9n31-25" source="MG4wYzX_MJgmjz2E4Kdr-63" target="MG4wYzX_MJgmjz2E4Kdr-68">
          <mxGeometry relative="1" as="geometry" />
        </mxCell>
        <mxCell id="MG4wYzX_MJgmjz2E4Kdr-63" value="&lt;div&gt;遍历paragraphs&lt;/div&gt;for i, paragraph in enumerate(paragraphs)" style="rounded=0;whiteSpace=wrap;html=1;" vertex="1" parent="bwkymRaFix-13DGY9n31-25">
          <mxGeometry x="40" y="158" width="120" height="60" as="geometry" />
        </mxCell>
        <mxCell id="MG4wYzX_MJgmjz2E4Kdr-73" style="edgeStyle=orthogonalEdgeStyle;rounded=0;orthogonalLoop=1;jettySize=auto;html=1;exitX=0.5;exitY=1;exitDx=0;exitDy=0;entryX=0.5;entryY=0;entryDx=0;entryDy=0;" edge="1" parent="bwkymRaFix-13DGY9n31-25" source="MG4wYzX_MJgmjz2E4Kdr-65" target="MG4wYzX_MJgmjz2E4Kdr-72">
          <mxGeometry relative="1" as="geometry" />
        </mxCell>
        <mxCell id="MG4wYzX_MJgmjz2E4Kdr-65" value="k = i +1" style="rounded=0;whiteSpace=wrap;html=1;" vertex="1" parent="bwkymRaFix-13DGY9n31-25">
          <mxGeometry x="40" y="400" width="120" height="60" as="geometry" />
        </mxCell>
        <mxCell id="MG4wYzX_MJgmjz2E4Kdr-71" style="edgeStyle=orthogonalEdgeStyle;rounded=0;orthogonalLoop=1;jettySize=auto;html=1;exitX=0.5;exitY=1;exitDx=0;exitDy=0;entryX=0.5;entryY=0;entryDx=0;entryDy=0;" edge="1" parent="bwkymRaFix-13DGY9n31-25" source="MG4wYzX_MJgmjz2E4Kdr-67" target="MG4wYzX_MJgmjz2E4Kdr-65">
          <mxGeometry relative="1" as="geometry" />
        </mxCell>
        <mxCell id="MG4wYzX_MJgmjz2E4Kdr-67" value="i" style="shape=parallelogram;perimeter=parallelogramPerimeter;whiteSpace=wrap;html=1;fixedSize=1;" vertex="1" parent="bwkymRaFix-13DGY9n31-25">
          <mxGeometry x="40" y="280" width="120" height="60" as="geometry" />
        </mxCell>
        <mxCell id="MG4wYzX_MJgmjz2E4Kdr-75" style="edgeStyle=orthogonalEdgeStyle;rounded=0;orthogonalLoop=1;jettySize=auto;html=1;exitX=0.5;exitY=1;exitDx=0;exitDy=0;entryX=0.5;entryY=0;entryDx=0;entryDy=0;fillColor=#76608a;strokeColor=#432D57;" edge="1" parent="bwkymRaFix-13DGY9n31-25" source="MG4wYzX_MJgmjz2E4Kdr-68" target="MG4wYzX_MJgmjz2E4Kdr-74">
          <mxGeometry relative="1" as="geometry" />
        </mxCell>
        <mxCell id="MG4wYzX_MJgmjz2E4Kdr-129" style="edgeStyle=orthogonalEdgeStyle;rounded=0;orthogonalLoop=1;jettySize=auto;html=1;exitX=0.5;exitY=1;exitDx=0;exitDy=0;entryX=0.25;entryY=0;entryDx=0;entryDy=0;fillColor=#76608a;strokeColor=#432D57;" edge="1" parent="bwkymRaFix-13DGY9n31-25" source="MG4wYzX_MJgmjz2E4Kdr-68" target="MG4wYzX_MJgmjz2E4Kdr-122">
          <mxGeometry relative="1" as="geometry">
            <Array as="points">
              <mxPoint x="260" y="370" />
              <mxPoint x="20" y="370" />
              <mxPoint x="20" y="1460" />
              <mxPoint x="230" y="1460" />
            </Array>
          </mxGeometry>
        </mxCell>
        <mxCell id="MG4wYzX_MJgmjz2E4Kdr-68" value="paragraph" style="shape=parallelogram;perimeter=parallelogramPerimeter;whiteSpace=wrap;html=1;fixedSize=1;fillColor=#76608a;fontColor=#ffffff;strokeColor=#432D57;" vertex="1" parent="bwkymRaFix-13DGY9n31-25">
          <mxGeometry x="200" y="280" width="120" height="60" as="geometry" />
        </mxCell>
        <mxCell id="MG4wYzX_MJgmjz2E4Kdr-100" style="edgeStyle=orthogonalEdgeStyle;rounded=0;orthogonalLoop=1;jettySize=auto;html=1;exitX=0.5;exitY=1;exitDx=0;exitDy=0;entryX=0.5;entryY=0;entryDx=0;entryDy=0;fillColor=#fa6800;strokeColor=#C73500;" edge="1" parent="bwkymRaFix-13DGY9n31-25" source="MG4wYzX_MJgmjz2E4Kdr-72" target="MG4wYzX_MJgmjz2E4Kdr-99">
          <mxGeometry relative="1" as="geometry">
            <Array as="points">
              <mxPoint x="100" y="880" />
              <mxPoint x="100" y="880" />
            </Array>
          </mxGeometry>
        </mxCell>
        <mxCell id="MG4wYzX_MJgmjz2E4Kdr-107" style="edgeStyle=orthogonalEdgeStyle;rounded=0;orthogonalLoop=1;jettySize=auto;html=1;exitX=0.5;exitY=1;exitDx=0;exitDy=0;entryX=0.75;entryY=0;entryDx=0;entryDy=0;fillColor=#fa6800;strokeColor=#C73500;" edge="1" parent="bwkymRaFix-13DGY9n31-25" source="MG4wYzX_MJgmjz2E4Kdr-72" target="MG4wYzX_MJgmjz2E4Kdr-101">
          <mxGeometry relative="1" as="geometry">
            <Array as="points">
              <mxPoint x="100" y="1000" />
              <mxPoint x="290" y="1000" />
            </Array>
          </mxGeometry>
        </mxCell>
        <mxCell id="MG4wYzX_MJgmjz2E4Kdr-108" style="edgeStyle=orthogonalEdgeStyle;rounded=0;orthogonalLoop=1;jettySize=auto;html=1;exitX=0.5;exitY=1;exitDx=0;exitDy=0;entryX=0.75;entryY=0;entryDx=0;entryDy=0;fillColor=#fa6800;strokeColor=#C73500;" edge="1" parent="bwkymRaFix-13DGY9n31-25" source="MG4wYzX_MJgmjz2E4Kdr-72" target="MG4wYzX_MJgmjz2E4Kdr-102">
          <mxGeometry relative="1" as="geometry">
            <Array as="points">
              <mxPoint x="100" y="1000" />
              <mxPoint x="450" y="1000" />
            </Array>
          </mxGeometry>
        </mxCell>
        <mxCell id="MG4wYzX_MJgmjz2E4Kdr-109" style="edgeStyle=orthogonalEdgeStyle;rounded=0;orthogonalLoop=1;jettySize=auto;html=1;exitX=0.5;exitY=1;exitDx=0;exitDy=0;entryX=0.75;entryY=0;entryDx=0;entryDy=0;fillColor=#fa6800;strokeColor=#C73500;" edge="1" parent="bwkymRaFix-13DGY9n31-25" source="MG4wYzX_MJgmjz2E4Kdr-72" target="MG4wYzX_MJgmjz2E4Kdr-103">
          <mxGeometry relative="1" as="geometry">
            <Array as="points">
              <mxPoint x="100" y="1000" />
              <mxPoint x="610" y="1000" />
            </Array>
          </mxGeometry>
        </mxCell>
        <mxCell id="MG4wYzX_MJgmjz2E4Kdr-110" style="edgeStyle=orthogonalEdgeStyle;rounded=0;orthogonalLoop=1;jettySize=auto;html=1;exitX=0.5;exitY=1;exitDx=0;exitDy=0;entryX=0.5;entryY=0;entryDx=0;entryDy=0;" edge="1" parent="bwkymRaFix-13DGY9n31-25" source="MG4wYzX_MJgmjz2E4Kdr-72" target="MG4wYzX_MJgmjz2E4Kdr-78">
          <mxGeometry relative="1" as="geometry">
            <Array as="points">
              <mxPoint x="100" y="620" />
              <mxPoint x="420" y="620" />
            </Array>
          </mxGeometry>
        </mxCell>
        <mxCell id="MG4wYzX_MJgmjz2E4Kdr-130" style="edgeStyle=orthogonalEdgeStyle;rounded=0;orthogonalLoop=1;jettySize=auto;html=1;exitX=0.5;exitY=1;exitDx=0;exitDy=0;entryX=0.75;entryY=0;entryDx=0;entryDy=0;fillColor=#fa6800;strokeColor=#C73500;" edge="1" parent="bwkymRaFix-13DGY9n31-25" source="MG4wYzX_MJgmjz2E4Kdr-72" target="MG4wYzX_MJgmjz2E4Kdr-122">
          <mxGeometry relative="1" as="geometry">
            <Array as="points">
              <mxPoint x="100" y="1000" />
              <mxPoint x="180" y="1000" />
              <mxPoint x="180" y="1440" />
              <mxPoint x="290" y="1440" />
            </Array>
          </mxGeometry>
        </mxCell>
        <mxCell id="MG4wYzX_MJgmjz2E4Kdr-72" value="k" style="shape=parallelogram;perimeter=parallelogramPerimeter;whiteSpace=wrap;html=1;fixedSize=1;fillColor=#fa6800;fontColor=#000000;strokeColor=#C73500;" vertex="1" parent="bwkymRaFix-13DGY9n31-25">
          <mxGeometry x="40" y="520" width="120" height="60" as="geometry" />
        </mxCell>
        <mxCell id="MG4wYzX_MJgmjz2E4Kdr-74" value="在操作台打印paragraph的内容&lt;div&gt;print(paragraph)&lt;/div&gt;" style="rounded=0;whiteSpace=wrap;html=1;" vertex="1" parent="bwkymRaFix-13DGY9n31-25">
          <mxGeometry x="200" y="400" width="120" height="60" as="geometry" />
        </mxCell>
        <mxCell id="MG4wYzX_MJgmjz2E4Kdr-111" style="edgeStyle=orthogonalEdgeStyle;rounded=0;orthogonalLoop=1;jettySize=auto;html=1;exitX=0.5;exitY=1;exitDx=0;exitDy=0;entryX=0.25;entryY=0;entryDx=0;entryDy=0;" edge="1" parent="bwkymRaFix-13DGY9n31-25" source="MG4wYzX_MJgmjz2E4Kdr-76" target="MG4wYzX_MJgmjz2E4Kdr-86">
          <mxGeometry relative="1" as="geometry">
            <Array as="points">
              <mxPoint x="420" y="600" />
              <mxPoint x="230" y="600" />
            </Array>
          </mxGeometry>
        </mxCell>
        <mxCell id="MG4wYzX_MJgmjz2E4Kdr-76" value="奇数对应的角色的相关信息odd_choice，有gpt_model_path, sovits_model_path, ref_audio_path, ref_text_path, source_image" style="shape=parallelogram;perimeter=parallelogramPerimeter;whiteSpace=wrap;html=1;fixedSize=1;" vertex="1" parent="bwkymRaFix-13DGY9n31-25">
          <mxGeometry x="360" y="40" width="120" height="60" as="geometry" />
        </mxCell>
        <mxCell id="MG4wYzX_MJgmjz2E4Kdr-106" style="edgeStyle=orthogonalEdgeStyle;rounded=0;orthogonalLoop=1;jettySize=auto;html=1;exitX=0.5;exitY=1;exitDx=0;exitDy=0;entryX=0.75;entryY=0;entryDx=0;entryDy=0;" edge="1" parent="bwkymRaFix-13DGY9n31-25" source="MG4wYzX_MJgmjz2E4Kdr-77" target="MG4wYzX_MJgmjz2E4Kdr-83">
          <mxGeometry relative="1" as="geometry">
            <Array as="points">
              <mxPoint x="580" y="600" />
              <mxPoint x="610" y="600" />
            </Array>
          </mxGeometry>
        </mxCell>
        <mxCell id="MG4wYzX_MJgmjz2E4Kdr-77" value="偶数对应的角色的相关信息even&lt;span style=&quot;background-color: initial;&quot;&gt;_choice，有gpt_model_path, sovits_model_path, ref_audio_path, ref_text_path, source_image&lt;/span&gt;" style="shape=parallelogram;perimeter=parallelogramPerimeter;whiteSpace=wrap;html=1;fixedSize=1;" vertex="1" parent="bwkymRaFix-13DGY9n31-25">
          <mxGeometry x="520" y="40" width="120" height="60" as="geometry" />
        </mxCell>
        <mxCell id="MG4wYzX_MJgmjz2E4Kdr-88" style="edgeStyle=orthogonalEdgeStyle;rounded=0;orthogonalLoop=1;jettySize=auto;html=1;exitX=0;exitY=0.5;exitDx=0;exitDy=0;entryX=0.75;entryY=0;entryDx=0;entryDy=0;fillColor=#e51400;strokeColor=#B20000;" edge="1" parent="bwkymRaFix-13DGY9n31-25" source="MG4wYzX_MJgmjz2E4Kdr-78" target="MG4wYzX_MJgmjz2E4Kdr-86">
          <mxGeometry relative="1" as="geometry" />
        </mxCell>
        <mxCell id="MG4wYzX_MJgmjz2E4Kdr-78" value="if k % 2 == 1" style="rhombus;whiteSpace=wrap;html=1;fillColor=#e51400;fontColor=#ffffff;strokeColor=#B20000;" vertex="1" parent="bwkymRaFix-13DGY9n31-25">
          <mxGeometry x="380" y="640" width="80" height="80" as="geometry" />
        </mxCell>
        <mxCell id="MG4wYzX_MJgmjz2E4Kdr-93" style="edgeStyle=orthogonalEdgeStyle;rounded=0;orthogonalLoop=1;jettySize=auto;html=1;exitX=0.5;exitY=1;exitDx=0;exitDy=0;entryX=0.75;entryY=0;entryDx=0;entryDy=0;" edge="1" parent="bwkymRaFix-13DGY9n31-25" source="MG4wYzX_MJgmjz2E4Kdr-83" target="MG4wYzX_MJgmjz2E4Kdr-91">
          <mxGeometry relative="1" as="geometry" />
        </mxCell>
        <mxCell id="MG4wYzX_MJgmjz2E4Kdr-83" value="&lt;div&gt;选择“奇数选择”&lt;/div&gt;m_choice = odd_choice" style="rounded=0;whiteSpace=wrap;html=1;" vertex="1" parent="bwkymRaFix-13DGY9n31-25">
          <mxGeometry x="520" y="760" width="120" height="60" as="geometry" />
        </mxCell>
        <mxCell id="MG4wYzX_MJgmjz2E4Kdr-92" style="edgeStyle=orthogonalEdgeStyle;rounded=0;orthogonalLoop=1;jettySize=auto;html=1;exitX=0.5;exitY=1;exitDx=0;exitDy=0;entryX=0.25;entryY=0;entryDx=0;entryDy=0;" edge="1" parent="bwkymRaFix-13DGY9n31-25" source="MG4wYzX_MJgmjz2E4Kdr-86" target="MG4wYzX_MJgmjz2E4Kdr-91">
          <mxGeometry relative="1" as="geometry" />
        </mxCell>
        <mxCell id="MG4wYzX_MJgmjz2E4Kdr-86" value="&lt;div&gt;选择“奇数选择”&lt;/div&gt;m_choice = odd_choice" style="rounded=0;whiteSpace=wrap;html=1;" vertex="1" parent="bwkymRaFix-13DGY9n31-25">
          <mxGeometry x="200" y="760" width="120" height="60" as="geometry" />
        </mxCell>
        <mxCell id="MG4wYzX_MJgmjz2E4Kdr-89" style="edgeStyle=orthogonalEdgeStyle;rounded=0;orthogonalLoop=1;jettySize=auto;html=1;exitX=1;exitY=0.5;exitDx=0;exitDy=0;entryX=0.334;entryY=0.032;entryDx=0;entryDy=0;entryPerimeter=0;fillColor=#e51400;strokeColor=#B20000;" edge="1" parent="bwkymRaFix-13DGY9n31-25" source="MG4wYzX_MJgmjz2E4Kdr-78" target="MG4wYzX_MJgmjz2E4Kdr-83">
          <mxGeometry relative="1" as="geometry" />
        </mxCell>
        <mxCell id="MG4wYzX_MJgmjz2E4Kdr-91" value="m_choice" style="shape=parallelogram;perimeter=parallelogramPerimeter;whiteSpace=wrap;html=1;fixedSize=1;fillColor=#6666FF;" vertex="1" parent="bwkymRaFix-13DGY9n31-25">
          <mxGeometry x="360" y="880" width="120" height="60" as="geometry" />
        </mxCell>
        <mxCell id="MG4wYzX_MJgmjz2E4Kdr-99" value="print(&quot;现在是&quot;, k)" style="rounded=0;whiteSpace=wrap;html=1;" vertex="1" parent="bwkymRaFix-13DGY9n31-25">
          <mxGeometry x="40" y="1120" width="120" height="60" as="geometry" />
        </mxCell>
        <mxCell id="MG4wYzX_MJgmjz2E4Kdr-119" style="edgeStyle=orthogonalEdgeStyle;rounded=0;orthogonalLoop=1;jettySize=auto;html=1;exitX=0.5;exitY=1;exitDx=0;exitDy=0;entryX=0.5;entryY=0;entryDx=0;entryDy=0;" edge="1" parent="bwkymRaFix-13DGY9n31-25" source="MG4wYzX_MJgmjz2E4Kdr-101" target="MG4wYzX_MJgmjz2E4Kdr-116">
          <mxGeometry relative="1" as="geometry" />
        </mxCell>
        <mxCell id="MG4wYzX_MJgmjz2E4Kdr-101" value="创建“存储第k段文本的文件夹”&lt;div&gt;Zi_Paragraphs_output_path = create_Zi_folder(Paragraphs_output_path, str(k))&lt;/div&gt;" style="rounded=0;whiteSpace=wrap;html=1;" vertex="1" parent="bwkymRaFix-13DGY9n31-25">
          <mxGeometry x="200" y="1240" width="120" height="60" as="geometry" />
        </mxCell>
        <mxCell id="MG4wYzX_MJgmjz2E4Kdr-120" style="edgeStyle=orthogonalEdgeStyle;rounded=0;orthogonalLoop=1;jettySize=auto;html=1;exitX=0.5;exitY=1;exitDx=0;exitDy=0;entryX=0.5;entryY=0;entryDx=0;entryDy=0;" edge="1" parent="bwkymRaFix-13DGY9n31-25" source="MG4wYzX_MJgmjz2E4Kdr-102" target="MG4wYzX_MJgmjz2E4Kdr-117">
          <mxGeometry relative="1" as="geometry" />
        </mxCell>
        <mxCell id="MG4wYzX_MJgmjz2E4Kdr-102" value="创建“存储第k段文本生成的语音的文件夹”&lt;div&gt;Zi_GSV_output_path = create_Zi_folder(GSV_output_path, str(k))&lt;/div&gt;" style="rounded=0;whiteSpace=wrap;html=1;" vertex="1" parent="bwkymRaFix-13DGY9n31-25">
          <mxGeometry x="360" y="1240" width="120" height="60" as="geometry" />
        </mxCell>
        <mxCell id="MG4wYzX_MJgmjz2E4Kdr-121" style="edgeStyle=orthogonalEdgeStyle;rounded=0;orthogonalLoop=1;jettySize=auto;html=1;exitX=0.5;exitY=1;exitDx=0;exitDy=0;entryX=0.5;entryY=0;entryDx=0;entryDy=0;" edge="1" parent="bwkymRaFix-13DGY9n31-25" source="MG4wYzX_MJgmjz2E4Kdr-103" target="MG4wYzX_MJgmjz2E4Kdr-118">
          <mxGeometry relative="1" as="geometry" />
        </mxCell>
        <mxCell id="MG4wYzX_MJgmjz2E4Kdr-103" value="创建“存储第k段文本生成的语音再生成的视频的文件夹”&lt;div&gt;Zi_SD_output_path = create_Zi_folder(SD_output_path, str(k))&lt;/div&gt;" style="rounded=0;whiteSpace=wrap;html=1;" vertex="1" parent="bwkymRaFix-13DGY9n31-25">
          <mxGeometry x="520" y="1240" width="120" height="60" as="geometry" />
        </mxCell>
        <mxCell id="MG4wYzX_MJgmjz2E4Kdr-123" style="edgeStyle=orthogonalEdgeStyle;rounded=0;orthogonalLoop=1;jettySize=auto;html=1;exitX=0.5;exitY=1;exitDx=0;exitDy=0;entryX=0.5;entryY=0;entryDx=0;entryDy=0;" edge="1" parent="bwkymRaFix-13DGY9n31-25" source="MG4wYzX_MJgmjz2E4Kdr-116" target="MG4wYzX_MJgmjz2E4Kdr-122">
          <mxGeometry relative="1" as="geometry" />
        </mxCell>
        <mxCell id="MG4wYzX_MJgmjz2E4Kdr-116" value="Zi_Paragraphs_output_path" style="shape=parallelogram;perimeter=parallelogramPerimeter;whiteSpace=wrap;html=1;fixedSize=1;fillColor=#6d8764;fontColor=#ffffff;strokeColor=#3A5431;" vertex="1" parent="bwkymRaFix-13DGY9n31-25">
          <mxGeometry x="200" y="1360" width="120" height="60" as="geometry" />
        </mxCell>
        <mxCell id="MG4wYzX_MJgmjz2E4Kdr-117" value="Zi_GSV_output_path" style="shape=parallelogram;perimeter=parallelogramPerimeter;whiteSpace=wrap;html=1;fixedSize=1;fillColor=#b1ddf0;strokeColor=#10739e;" vertex="1" parent="bwkymRaFix-13DGY9n31-25">
          <mxGeometry x="360" y="1360" width="120" height="60" as="geometry" />
        </mxCell>
        <mxCell id="MG4wYzX_MJgmjz2E4Kdr-118" value="Zi_SD_output_path" style="shape=parallelogram;perimeter=parallelogramPerimeter;whiteSpace=wrap;html=1;fixedSize=1;fillColor=#dae8fc;strokeColor=#6c8ebf;gradientColor=#7ea6e0;" vertex="1" parent="bwkymRaFix-13DGY9n31-25">
          <mxGeometry x="520" y="1360" width="120" height="60" as="geometry" />
        </mxCell>
        <mxCell id="MG4wYzX_MJgmjz2E4Kdr-125" style="edgeStyle=orthogonalEdgeStyle;rounded=0;orthogonalLoop=1;jettySize=auto;html=1;exitX=0.5;exitY=1;exitDx=0;exitDy=0;entryX=0.5;entryY=0;entryDx=0;entryDy=0;" edge="1" parent="bwkymRaFix-13DGY9n31-25" source="MG4wYzX_MJgmjz2E4Kdr-122" target="MG4wYzX_MJgmjz2E4Kdr-124">
          <mxGeometry relative="1" as="geometry" />
        </mxCell>
        <mxCell id="MG4wYzX_MJgmjz2E4Kdr-186" style="edgeStyle=orthogonalEdgeStyle;rounded=0;orthogonalLoop=1;jettySize=auto;html=1;exitX=0.5;exitY=1;exitDx=0;exitDy=0;entryX=0.5;entryY=0;entryDx=0;entryDy=0;" edge="1" parent="bwkymRaFix-13DGY9n31-25" source="MG4wYzX_MJgmjz2E4Kdr-122" target="MG4wYzX_MJgmjz2E4Kdr-185">
          <mxGeometry relative="1" as="geometry" />
        </mxCell>
        <mxCell id="MG4wYzX_MJgmjz2E4Kdr-122" value="将paragraph保存到k.txt文件中&lt;div&gt;target_text_path = save_files(paragraph, Zi_Paragraphs_output_path, str(k))&lt;/div&gt;" style="rounded=0;whiteSpace=wrap;html=1;" vertex="1" parent="bwkymRaFix-13DGY9n31-25">
          <mxGeometry x="200" y="1480" width="120" height="60" as="geometry" />
        </mxCell>
        <mxCell id="MG4wYzX_MJgmjz2E4Kdr-124" value="k.txt" style="shape=parallelogram;perimeter=parallelogramPerimeter;whiteSpace=wrap;html=1;fixedSize=1;" vertex="1" parent="bwkymRaFix-13DGY9n31-25">
          <mxGeometry x="200" y="1720" width="120" height="60" as="geometry" />
        </mxCell>
        <mxCell id="MG4wYzX_MJgmjz2E4Kdr-185" value="target_text_path" style="shape=parallelogram;perimeter=parallelogramPerimeter;whiteSpace=wrap;html=1;fixedSize=1;fillColor=#e51400;fontColor=#ffffff;strokeColor=#B20000;" vertex="1" parent="bwkymRaFix-13DGY9n31-25">
          <mxGeometry x="360" y="1600" width="120" height="60" as="geometry" />
        </mxCell>
        <mxCell id="bwkymRaFix-13DGY9n31-26" value="&lt;font style=&quot;font-size: 20px;&quot;&gt;文本转语音&lt;/font&gt;" style="swimlane;whiteSpace=wrap;html=1;" parent="1" vertex="1">
          <mxGeometry x="1280" y="80" width="1160" height="1840" as="geometry" />
        </mxCell>
        <mxCell id="MG4wYzX_MJgmjz2E4Kdr-132" value="&lt;div&gt;GPT-SoVITS目录&lt;/div&gt;GSV_work_dir" style="shape=parallelogram;perimeter=parallelogramPerimeter;whiteSpace=wrap;html=1;fixedSize=1;" vertex="1" parent="bwkymRaFix-13DGY9n31-26">
          <mxGeometry x="40" y="40" width="120" height="60" as="geometry" />
        </mxCell>
        <mxCell id="MG4wYzX_MJgmjz2E4Kdr-161" style="edgeStyle=orthogonalEdgeStyle;rounded=0;orthogonalLoop=1;jettySize=auto;html=1;exitX=0.5;exitY=1;exitDx=0;exitDy=0;entryX=0.5;entryY=0;entryDx=0;entryDy=0;" edge="1" parent="bwkymRaFix-13DGY9n31-26" source="MG4wYzX_MJgmjz2E4Kdr-133" target="MG4wYzX_MJgmjz2E4Kdr-141">
          <mxGeometry relative="1" as="geometry" />
        </mxCell>
        <mxCell id="MG4wYzX_MJgmjz2E4Kdr-133" value="SoVITS模型人物(person.pth)路径字典&lt;div&gt;sovits_model_paths = {&lt;/div&gt;&lt;div&gt;...&lt;/div&gt;&lt;div&gt;}&lt;/div&gt;" style="shape=parallelogram;perimeter=parallelogramPerimeter;whiteSpace=wrap;html=1;fixedSize=1;" vertex="1" parent="bwkymRaFix-13DGY9n31-26">
          <mxGeometry x="360" y="40" width="120" height="60" as="geometry" />
        </mxCell>
        <mxCell id="MG4wYzX_MJgmjz2E4Kdr-157" style="edgeStyle=orthogonalEdgeStyle;rounded=0;orthogonalLoop=1;jettySize=auto;html=1;exitX=0.5;exitY=1;exitDx=0;exitDy=0;entryX=0.5;entryY=0;entryDx=0;entryDy=0;" edge="1" parent="bwkymRaFix-13DGY9n31-26" source="MG4wYzX_MJgmjz2E4Kdr-134" target="MG4wYzX_MJgmjz2E4Kdr-140">
          <mxGeometry relative="1" as="geometry" />
        </mxCell>
        <mxCell id="MG4wYzX_MJgmjz2E4Kdr-134" value="GPT模型人物(person.ckpt)路径字典&lt;div&gt;gpt_model_paths = {&lt;/div&gt;&lt;div&gt;...&lt;/div&gt;&lt;div&gt;}&lt;/div&gt;" style="shape=parallelogram;perimeter=parallelogramPerimeter;whiteSpace=wrap;html=1;fixedSize=1;" vertex="1" parent="bwkymRaFix-13DGY9n31-26">
          <mxGeometry x="200" y="40" width="120" height="60" as="geometry" />
        </mxCell>
        <mxCell id="MG4wYzX_MJgmjz2E4Kdr-162" style="edgeStyle=orthogonalEdgeStyle;rounded=0;orthogonalLoop=1;jettySize=auto;html=1;exitX=0.5;exitY=1;exitDx=0;exitDy=0;entryX=0.5;entryY=0;entryDx=0;entryDy=0;" edge="1" parent="bwkymRaFix-13DGY9n31-26" source="MG4wYzX_MJgmjz2E4Kdr-136" target="MG4wYzX_MJgmjz2E4Kdr-142">
          <mxGeometry relative="1" as="geometry" />
        </mxCell>
        <mxCell id="MG4wYzX_MJgmjz2E4Kdr-136" value="人物参考音频(reference_i.wav)路径字典&lt;div&gt;ref_audio_paths = {&lt;/div&gt;&lt;div&gt;...&lt;/div&gt;&lt;div&gt;}&lt;/div&gt;" style="shape=parallelogram;perimeter=parallelogramPerimeter;whiteSpace=wrap;html=1;fixedSize=1;" vertex="1" parent="bwkymRaFix-13DGY9n31-26">
          <mxGeometry x="520" y="40" width="120" height="60" as="geometry" />
        </mxCell>
        <mxCell id="MG4wYzX_MJgmjz2E4Kdr-163" style="edgeStyle=orthogonalEdgeStyle;rounded=0;orthogonalLoop=1;jettySize=auto;html=1;exitX=0.5;exitY=1;exitDx=0;exitDy=0;entryX=0.5;entryY=0;entryDx=0;entryDy=0;" edge="1" parent="bwkymRaFix-13DGY9n31-26" source="MG4wYzX_MJgmjz2E4Kdr-137" target="MG4wYzX_MJgmjz2E4Kdr-154">
          <mxGeometry relative="1" as="geometry" />
        </mxCell>
        <mxCell id="MG4wYzX_MJgmjz2E4Kdr-137" value="人物参考音频文本(reference_i.txt)路径字典&lt;div&gt;ref_text_paths = {&lt;/div&gt;&lt;div&gt;...&lt;/div&gt;&lt;div&gt;}&lt;/div&gt;" style="shape=parallelogram;perimeter=parallelogramPerimeter;whiteSpace=wrap;html=1;fixedSize=1;" vertex="1" parent="bwkymRaFix-13DGY9n31-26">
          <mxGeometry x="680" y="40" width="120" height="60" as="geometry" />
        </mxCell>
        <mxCell id="MG4wYzX_MJgmjz2E4Kdr-138" value="参考文本的语言&lt;div&gt;ref_language = &#39;中文&#39;&lt;/div&gt;" style="shape=parallelogram;perimeter=parallelogramPerimeter;whiteSpace=wrap;html=1;fixedSize=1;" vertex="1" parent="bwkymRaFix-13DGY9n31-26">
          <mxGeometry x="840" y="40" width="120" height="60" as="geometry" />
        </mxCell>
        <mxCell id="MG4wYzX_MJgmjz2E4Kdr-139" value="目标文本的语言&lt;div&gt;target_language = &#39;中文&#39;&lt;/div&gt;" style="shape=parallelogram;perimeter=parallelogramPerimeter;whiteSpace=wrap;html=1;fixedSize=1;" vertex="1" parent="bwkymRaFix-13DGY9n31-26">
          <mxGeometry x="1000" y="40" width="120" height="60" as="geometry" />
        </mxCell>
        <mxCell id="MG4wYzX_MJgmjz2E4Kdr-170" style="edgeStyle=orthogonalEdgeStyle;rounded=0;orthogonalLoop=1;jettySize=auto;html=1;exitX=0.5;exitY=1;exitDx=0;exitDy=0;entryX=0.5;entryY=0;entryDx=0;entryDy=0;" edge="1" parent="bwkymRaFix-13DGY9n31-26" source="MG4wYzX_MJgmjz2E4Kdr-140" target="MG4wYzX_MJgmjz2E4Kdr-166">
          <mxGeometry relative="1" as="geometry" />
        </mxCell>
        <mxCell id="MG4wYzX_MJgmjz2E4Kdr-140" value="从字典中调出m_choice对应的GPT模型的路径" style="rounded=0;whiteSpace=wrap;html=1;" vertex="1" parent="bwkymRaFix-13DGY9n31-26">
          <mxGeometry x="200" y="160" width="120" height="60" as="geometry" />
        </mxCell>
        <mxCell id="MG4wYzX_MJgmjz2E4Kdr-171" style="edgeStyle=orthogonalEdgeStyle;rounded=0;orthogonalLoop=1;jettySize=auto;html=1;exitX=0.5;exitY=1;exitDx=0;exitDy=0;entryX=0.5;entryY=0;entryDx=0;entryDy=0;" edge="1" parent="bwkymRaFix-13DGY9n31-26" source="MG4wYzX_MJgmjz2E4Kdr-141" target="MG4wYzX_MJgmjz2E4Kdr-167">
          <mxGeometry relative="1" as="geometry" />
        </mxCell>
        <mxCell id="MG4wYzX_MJgmjz2E4Kdr-141" value="从字典中调出m_choice对应的SoVITS模型的路径" style="rounded=0;whiteSpace=wrap;html=1;" vertex="1" parent="bwkymRaFix-13DGY9n31-26">
          <mxGeometry x="360" y="160" width="120" height="60" as="geometry" />
        </mxCell>
        <mxCell id="MG4wYzX_MJgmjz2E4Kdr-172" style="edgeStyle=orthogonalEdgeStyle;rounded=0;orthogonalLoop=1;jettySize=auto;html=1;exitX=0.5;exitY=1;exitDx=0;exitDy=0;entryX=0.5;entryY=0;entryDx=0;entryDy=0;" edge="1" parent="bwkymRaFix-13DGY9n31-26" source="MG4wYzX_MJgmjz2E4Kdr-142" target="MG4wYzX_MJgmjz2E4Kdr-168">
          <mxGeometry relative="1" as="geometry" />
        </mxCell>
        <mxCell id="MG4wYzX_MJgmjz2E4Kdr-142" value="从字典中调出m_choice对应的参考音频的路径" style="rounded=0;whiteSpace=wrap;html=1;" vertex="1" parent="bwkymRaFix-13DGY9n31-26">
          <mxGeometry x="520" y="160" width="120" height="60" as="geometry" />
        </mxCell>
        <mxCell id="MG4wYzX_MJgmjz2E4Kdr-173" style="edgeStyle=orthogonalEdgeStyle;rounded=0;orthogonalLoop=1;jettySize=auto;html=1;exitX=0.5;exitY=1;exitDx=0;exitDy=0;entryX=0.5;entryY=0;entryDx=0;entryDy=0;" edge="1" parent="bwkymRaFix-13DGY9n31-26" source="MG4wYzX_MJgmjz2E4Kdr-154" target="MG4wYzX_MJgmjz2E4Kdr-169">
          <mxGeometry relative="1" as="geometry" />
        </mxCell>
        <mxCell id="MG4wYzX_MJgmjz2E4Kdr-154" value="从字典中调出m_choice对应的参考音频的文本的路径" style="rounded=0;whiteSpace=wrap;html=1;" vertex="1" parent="bwkymRaFix-13DGY9n31-26">
          <mxGeometry x="680" y="160" width="120" height="60" as="geometry" />
        </mxCell>
        <mxCell id="MG4wYzX_MJgmjz2E4Kdr-166" value="m_choice对应的GPT模型的路径" style="shape=parallelogram;perimeter=parallelogramPerimeter;whiteSpace=wrap;html=1;fixedSize=1;" vertex="1" parent="bwkymRaFix-13DGY9n31-26">
          <mxGeometry x="200" y="280" width="120" height="60" as="geometry" />
        </mxCell>
        <mxCell id="MG4wYzX_MJgmjz2E4Kdr-167" value="m_choice对应的SoVITS模型的路径" style="shape=parallelogram;perimeter=parallelogramPerimeter;whiteSpace=wrap;html=1;fixedSize=1;" vertex="1" parent="bwkymRaFix-13DGY9n31-26">
          <mxGeometry x="360" y="280" width="120" height="60" as="geometry" />
        </mxCell>
        <mxCell id="MG4wYzX_MJgmjz2E4Kdr-181" style="edgeStyle=orthogonalEdgeStyle;rounded=0;orthogonalLoop=1;jettySize=auto;html=1;exitX=0.5;exitY=1;exitDx=0;exitDy=0;entryX=0.5;entryY=0;entryDx=0;entryDy=0;" edge="1" parent="bwkymRaFix-13DGY9n31-26" source="MG4wYzX_MJgmjz2E4Kdr-168" target="MG4wYzX_MJgmjz2E4Kdr-176">
          <mxGeometry relative="1" as="geometry" />
        </mxCell>
        <mxCell id="MG4wYzX_MJgmjz2E4Kdr-168" value="m_choice对应的参考音频的路径" style="shape=parallelogram;perimeter=parallelogramPerimeter;whiteSpace=wrap;html=1;fixedSize=1;" vertex="1" parent="bwkymRaFix-13DGY9n31-26">
          <mxGeometry x="520" y="280" width="120" height="60" as="geometry" />
        </mxCell>
        <mxCell id="MG4wYzX_MJgmjz2E4Kdr-169" value="m_choice对应的参考音频的文本的路径" style="shape=parallelogram;perimeter=parallelogramPerimeter;whiteSpace=wrap;html=1;fixedSize=1;" vertex="1" parent="bwkymRaFix-13DGY9n31-26">
          <mxGeometry x="680" y="280" width="120" height="60" as="geometry" />
        </mxCell>
        <mxCell id="MG4wYzX_MJgmjz2E4Kdr-189" style="edgeStyle=orthogonalEdgeStyle;rounded=0;orthogonalLoop=1;jettySize=auto;html=1;exitX=0.5;exitY=1;exitDx=0;exitDy=0;entryX=0.5;entryY=0;entryDx=0;entryDy=0;" edge="1" parent="bwkymRaFix-13DGY9n31-26" source="MG4wYzX_MJgmjz2E4Kdr-176" target="MG4wYzX_MJgmjz2E4Kdr-188">
          <mxGeometry relative="1" as="geometry" />
        </mxCell>
        <mxCell id="MG4wYzX_MJgmjz2E4Kdr-176" value="run_command_GSV(GSV_work_dir, m_choice[&#39;gpt_model-path&#39;], m_choice[&#39;sovits_model_path&#39;], m_choice[&#39;ref_audio_path&#39;], m_choice[&#39;ref_text_path&#39;],ref_language, target_text_path, target_language, Zi_GSV_output_path)" style="rounded=0;whiteSpace=wrap;html=1;" vertex="1" parent="bwkymRaFix-13DGY9n31-26">
          <mxGeometry x="40" y="520" width="1080" height="60" as="geometry" />
        </mxCell>
        <mxCell id="MG4wYzX_MJgmjz2E4Kdr-178" style="edgeStyle=orthogonalEdgeStyle;rounded=0;orthogonalLoop=1;jettySize=auto;html=1;exitX=0.5;exitY=1;exitDx=0;exitDy=0;entryX=0.056;entryY=0.001;entryDx=0;entryDy=0;entryPerimeter=0;" edge="1" parent="bwkymRaFix-13DGY9n31-26" source="MG4wYzX_MJgmjz2E4Kdr-132" target="MG4wYzX_MJgmjz2E4Kdr-176">
          <mxGeometry relative="1" as="geometry" />
        </mxCell>
        <mxCell id="MG4wYzX_MJgmjz2E4Kdr-179" style="edgeStyle=orthogonalEdgeStyle;rounded=0;orthogonalLoop=1;jettySize=auto;html=1;exitX=0.5;exitY=1;exitDx=0;exitDy=0;" edge="1" parent="bwkymRaFix-13DGY9n31-26" source="MG4wYzX_MJgmjz2E4Kdr-166">
          <mxGeometry relative="1" as="geometry">
            <mxPoint x="260" y="520" as="targetPoint" />
          </mxGeometry>
        </mxCell>
        <mxCell id="MG4wYzX_MJgmjz2E4Kdr-180" style="edgeStyle=orthogonalEdgeStyle;rounded=0;orthogonalLoop=1;jettySize=auto;html=1;exitX=0.5;exitY=1;exitDx=0;exitDy=0;" edge="1" parent="bwkymRaFix-13DGY9n31-26" source="MG4wYzX_MJgmjz2E4Kdr-167">
          <mxGeometry relative="1" as="geometry">
            <mxPoint x="419" y="520" as="targetPoint" />
          </mxGeometry>
        </mxCell>
        <mxCell id="MG4wYzX_MJgmjz2E4Kdr-182" style="edgeStyle=orthogonalEdgeStyle;rounded=0;orthogonalLoop=1;jettySize=auto;html=1;exitX=0.5;exitY=1;exitDx=0;exitDy=0;" edge="1" parent="bwkymRaFix-13DGY9n31-26" source="MG4wYzX_MJgmjz2E4Kdr-169">
          <mxGeometry relative="1" as="geometry">
            <mxPoint x="740" y="520" as="targetPoint" />
          </mxGeometry>
        </mxCell>
        <mxCell id="MG4wYzX_MJgmjz2E4Kdr-183" style="edgeStyle=orthogonalEdgeStyle;rounded=0;orthogonalLoop=1;jettySize=auto;html=1;exitX=0.5;exitY=1;exitDx=0;exitDy=0;" edge="1" parent="bwkymRaFix-13DGY9n31-26" source="MG4wYzX_MJgmjz2E4Kdr-138">
          <mxGeometry relative="1" as="geometry">
            <mxPoint x="900" y="520" as="targetPoint" />
          </mxGeometry>
        </mxCell>
        <mxCell id="MG4wYzX_MJgmjz2E4Kdr-184" style="edgeStyle=orthogonalEdgeStyle;rounded=0;orthogonalLoop=1;jettySize=auto;html=1;exitX=0.5;exitY=1;exitDx=0;exitDy=0;" edge="1" parent="bwkymRaFix-13DGY9n31-26" source="MG4wYzX_MJgmjz2E4Kdr-139">
          <mxGeometry relative="1" as="geometry">
            <mxPoint x="1060" y="520" as="targetPoint" />
          </mxGeometry>
        </mxCell>
        <mxCell id="MG4wYzX_MJgmjz2E4Kdr-188" value="output.wav" style="shape=parallelogram;perimeter=parallelogramPerimeter;whiteSpace=wrap;html=1;fixedSize=1;" vertex="1" parent="bwkymRaFix-13DGY9n31-26">
          <mxGeometry x="520" y="1720" width="120" height="60" as="geometry" />
        </mxCell>
        <mxCell id="bwkymRaFix-13DGY9n31-27" value="&lt;font style=&quot;font-size: 20px;&quot;&gt;语音转视频&lt;/font&gt;" style="swimlane;whiteSpace=wrap;html=1;" parent="1" vertex="1">
          <mxGeometry x="2440" y="80" width="840" height="1840" as="geometry" />
        </mxCell>
        <mxCell id="MG4wYzX_MJgmjz2E4Kdr-195" style="edgeStyle=orthogonalEdgeStyle;rounded=0;orthogonalLoop=1;jettySize=auto;html=1;exitX=0.5;exitY=1;exitDx=0;exitDy=0;entryX=0.5;entryY=0;entryDx=0;entryDy=0;" edge="1" parent="bwkymRaFix-13DGY9n31-27" source="MG4wYzX_MJgmjz2E4Kdr-192" target="MG4wYzX_MJgmjz2E4Kdr-194">
          <mxGeometry relative="1" as="geometry" />
        </mxCell>
        <mxCell id="MG4wYzX_MJgmjz2E4Kdr-192" value="合成驱动音频的路径&lt;div&gt;driven_audio = os.path.join(Zi_GSV_output_path, &#39;output.wav&#39;)&lt;/div&gt;" style="rounded=0;whiteSpace=wrap;html=1;" vertex="1" parent="bwkymRaFix-13DGY9n31-27">
          <mxGeometry x="40" y="158" width="120" height="60" as="geometry" />
        </mxCell>
        <mxCell id="MG4wYzX_MJgmjz2E4Kdr-194" value="driven_audio" style="shape=parallelogram;perimeter=parallelogramPerimeter;whiteSpace=wrap;html=1;fixedSize=1;" vertex="1" parent="bwkymRaFix-13DGY9n31-27">
          <mxGeometry x="40" y="280" width="120" height="60" as="geometry" />
        </mxCell>
        <mxCell id="MG4wYzX_MJgmjz2E4Kdr-196" value="SadTalker目录&lt;div&gt;SD_work_dir&lt;/div&gt;" style="shape=parallelogram;perimeter=parallelogramPerimeter;whiteSpace=wrap;html=1;fixedSize=1;" vertex="1" parent="bwkymRaFix-13DGY9n31-27">
          <mxGeometry x="200" y="40" width="120" height="60" as="geometry" />
        </mxCell>
        <mxCell id="MG4wYzX_MJgmjz2E4Kdr-203" style="edgeStyle=orthogonalEdgeStyle;rounded=0;orthogonalLoop=1;jettySize=auto;html=1;exitX=0.5;exitY=1;exitDx=0;exitDy=0;" edge="1" parent="bwkymRaFix-13DGY9n31-27" source="MG4wYzX_MJgmjz2E4Kdr-197" target="MG4wYzX_MJgmjz2E4Kdr-201">
          <mxGeometry relative="1" as="geometry" />
        </mxCell>
        <mxCell id="MG4wYzX_MJgmjz2E4Kdr-197" value="人物图像(person_i.jpg)路径字典" style="shape=parallelogram;perimeter=parallelogramPerimeter;whiteSpace=wrap;html=1;fixedSize=1;" vertex="1" parent="bwkymRaFix-13DGY9n31-27">
          <mxGeometry x="360" y="40" width="120" height="60" as="geometry" />
        </mxCell>
        <mxCell id="MG4wYzX_MJgmjz2E4Kdr-198" value="preprocess = &#39;full&#39;" style="shape=parallelogram;perimeter=parallelogramPerimeter;whiteSpace=wrap;html=1;fixedSize=1;" vertex="1" parent="bwkymRaFix-13DGY9n31-27">
          <mxGeometry x="520" y="40" width="120" height="60" as="geometry" />
        </mxCell>
        <mxCell id="MG4wYzX_MJgmjz2E4Kdr-199" value="enhancer = &#39;gfpgan&#39;" style="shape=parallelogram;perimeter=parallelogramPerimeter;whiteSpace=wrap;html=1;fixedSize=1;" vertex="1" parent="bwkymRaFix-13DGY9n31-27">
          <mxGeometry x="680" y="40" width="120" height="60" as="geometry" />
        </mxCell>
        <mxCell id="MG4wYzX_MJgmjz2E4Kdr-200" style="edgeStyle=orthogonalEdgeStyle;rounded=0;orthogonalLoop=1;jettySize=auto;html=1;exitX=0.5;exitY=1;exitDx=0;exitDy=0;entryX=0.5;entryY=0;entryDx=0;entryDy=0;" edge="1" parent="bwkymRaFix-13DGY9n31-27" source="MG4wYzX_MJgmjz2E4Kdr-201" target="MG4wYzX_MJgmjz2E4Kdr-202">
          <mxGeometry relative="1" as="geometry" />
        </mxCell>
        <mxCell id="MG4wYzX_MJgmjz2E4Kdr-201" value="从字典中调出m_choice对应的人物图像的路径" style="rounded=0;whiteSpace=wrap;html=1;" vertex="1" parent="bwkymRaFix-13DGY9n31-27">
          <mxGeometry x="360" y="158" width="120" height="60" as="geometry" />
        </mxCell>
        <mxCell id="MG4wYzX_MJgmjz2E4Kdr-208" style="edgeStyle=orthogonalEdgeStyle;rounded=0;orthogonalLoop=1;jettySize=auto;html=1;exitX=0.5;exitY=1;exitDx=0;exitDy=0;entryX=0.5;entryY=0;entryDx=0;entryDy=0;" edge="1" parent="bwkymRaFix-13DGY9n31-27" source="MG4wYzX_MJgmjz2E4Kdr-202" target="MG4wYzX_MJgmjz2E4Kdr-205">
          <mxGeometry relative="1" as="geometry" />
        </mxCell>
        <mxCell id="MG4wYzX_MJgmjz2E4Kdr-221" style="edgeStyle=orthogonalEdgeStyle;rounded=0;orthogonalLoop=1;jettySize=auto;html=1;exitX=0.5;exitY=1;exitDx=0;exitDy=0;entryX=0.5;entryY=0;entryDx=0;entryDy=0;" edge="1" parent="bwkymRaFix-13DGY9n31-27" source="MG4wYzX_MJgmjz2E4Kdr-202" target="MG4wYzX_MJgmjz2E4Kdr-216">
          <mxGeometry relative="1" as="geometry">
            <Array as="points">
              <mxPoint x="420" y="400" />
              <mxPoint x="820" y="400" />
              <mxPoint x="820" y="680" />
              <mxPoint x="580" y="680" />
            </Array>
          </mxGeometry>
        </mxCell>
        <mxCell id="MG4wYzX_MJgmjz2E4Kdr-202" value="m_choice对应的人物图像的路径" style="shape=parallelogram;perimeter=parallelogramPerimeter;whiteSpace=wrap;html=1;fixedSize=1;" vertex="1" parent="bwkymRaFix-13DGY9n31-27">
          <mxGeometry x="360" y="278" width="120" height="60" as="geometry" />
        </mxCell>
        <mxCell id="MG4wYzX_MJgmjz2E4Kdr-214" style="edgeStyle=orthogonalEdgeStyle;rounded=0;orthogonalLoop=1;jettySize=auto;html=1;exitX=0.5;exitY=1;exitDx=0;exitDy=0;entryX=0.5;entryY=0;entryDx=0;entryDy=0;" edge="1" parent="bwkymRaFix-13DGY9n31-27" source="MG4wYzX_MJgmjz2E4Kdr-205" target="MG4wYzX_MJgmjz2E4Kdr-213">
          <mxGeometry relative="1" as="geometry" />
        </mxCell>
        <mxCell id="MG4wYzX_MJgmjz2E4Kdr-205" value="run_command_SD(SD_work_dir, driven_audio, m_choice[&#39;source_image&#39;], Zi_SD_output_path, preprocess, enhancer)" style="rounded=0;whiteSpace=wrap;html=1;" vertex="1" parent="bwkymRaFix-13DGY9n31-27">
          <mxGeometry x="40" y="520" width="760" height="60" as="geometry" />
        </mxCell>
        <mxCell id="MG4wYzX_MJgmjz2E4Kdr-206" style="edgeStyle=orthogonalEdgeStyle;rounded=0;orthogonalLoop=1;jettySize=auto;html=1;exitX=0.5;exitY=1;exitDx=0;exitDy=0;" edge="1" parent="bwkymRaFix-13DGY9n31-27" source="MG4wYzX_MJgmjz2E4Kdr-194">
          <mxGeometry relative="1" as="geometry">
            <mxPoint x="99" y="520" as="targetPoint" />
          </mxGeometry>
        </mxCell>
        <mxCell id="MG4wYzX_MJgmjz2E4Kdr-207" style="edgeStyle=orthogonalEdgeStyle;rounded=0;orthogonalLoop=1;jettySize=auto;html=1;exitX=0.5;exitY=1;exitDx=0;exitDy=0;" edge="1" parent="bwkymRaFix-13DGY9n31-27" source="MG4wYzX_MJgmjz2E4Kdr-196">
          <mxGeometry relative="1" as="geometry">
            <mxPoint x="260" y="520" as="targetPoint" />
          </mxGeometry>
        </mxCell>
        <mxCell id="MG4wYzX_MJgmjz2E4Kdr-209" style="edgeStyle=orthogonalEdgeStyle;rounded=0;orthogonalLoop=1;jettySize=auto;html=1;exitX=0.5;exitY=1;exitDx=0;exitDy=0;entryX=0.711;entryY=0.004;entryDx=0;entryDy=0;entryPerimeter=0;" edge="1" parent="bwkymRaFix-13DGY9n31-27" source="MG4wYzX_MJgmjz2E4Kdr-198" target="MG4wYzX_MJgmjz2E4Kdr-205">
          <mxGeometry relative="1" as="geometry">
            <mxPoint x="580" y="518" as="targetPoint" />
          </mxGeometry>
        </mxCell>
        <mxCell id="MG4wYzX_MJgmjz2E4Kdr-211" style="edgeStyle=orthogonalEdgeStyle;rounded=0;orthogonalLoop=1;jettySize=auto;html=1;exitX=0.5;exitY=1;exitDx=0;exitDy=0;" edge="1" parent="bwkymRaFix-13DGY9n31-27" source="MG4wYzX_MJgmjz2E4Kdr-199">
          <mxGeometry relative="1" as="geometry">
            <mxPoint x="740" y="520" as="targetPoint" />
          </mxGeometry>
        </mxCell>
        <mxCell id="MG4wYzX_MJgmjz2E4Kdr-213" value="...##output_enhanced.mp4" style="shape=parallelogram;perimeter=parallelogramPerimeter;whiteSpace=wrap;html=1;fixedSize=1;" vertex="1" parent="bwkymRaFix-13DGY9n31-27">
          <mxGeometry x="360" y="1720" width="120" height="60" as="geometry" />
        </mxCell>
        <mxCell id="MG4wYzX_MJgmjz2E4Kdr-220" style="edgeStyle=orthogonalEdgeStyle;rounded=0;orthogonalLoop=1;jettySize=auto;html=1;exitX=0.5;exitY=1;exitDx=0;exitDy=0;entryX=0.5;entryY=0;entryDx=0;entryDy=0;" edge="1" parent="bwkymRaFix-13DGY9n31-27" source="MG4wYzX_MJgmjz2E4Kdr-216" target="MG4wYzX_MJgmjz2E4Kdr-219">
          <mxGeometry relative="1" as="geometry" />
        </mxCell>
        <mxCell id="MG4wYzX_MJgmjz2E4Kdr-216" value="合成SD输出视频的名称&lt;div&gt;video_name = os.path.splitext(os.path.basename(m_choice[&#39;source_image&#39;]))[0]+&#39;##output_enchanced.mp4&#39;&lt;/div&gt;" style="rounded=0;whiteSpace=wrap;html=1;" vertex="1" parent="bwkymRaFix-13DGY9n31-27">
          <mxGeometry x="520" y="760" width="120" height="60" as="geometry" />
        </mxCell>
        <mxCell id="MG4wYzX_MJgmjz2E4Kdr-224" style="edgeStyle=orthogonalEdgeStyle;rounded=0;orthogonalLoop=1;jettySize=auto;html=1;exitX=0.5;exitY=1;exitDx=0;exitDy=0;entryX=0.5;entryY=0;entryDx=0;entryDy=0;" edge="1" parent="bwkymRaFix-13DGY9n31-27" source="MG4wYzX_MJgmjz2E4Kdr-219" target="MG4wYzX_MJgmjz2E4Kdr-222">
          <mxGeometry relative="1" as="geometry" />
        </mxCell>
        <mxCell id="MG4wYzX_MJgmjz2E4Kdr-219" value="video_name" style="shape=parallelogram;perimeter=parallelogramPerimeter;whiteSpace=wrap;html=1;fixedSize=1;" vertex="1" parent="bwkymRaFix-13DGY9n31-27">
          <mxGeometry x="520" y="880" width="120" height="60" as="geometry" />
        </mxCell>
        <mxCell id="MG4wYzX_MJgmjz2E4Kdr-226" style="edgeStyle=orthogonalEdgeStyle;rounded=0;orthogonalLoop=1;jettySize=auto;html=1;exitX=0.5;exitY=1;exitDx=0;exitDy=0;entryX=0.5;entryY=0;entryDx=0;entryDy=0;" edge="1" parent="bwkymRaFix-13DGY9n31-27" source="MG4wYzX_MJgmjz2E4Kdr-222" target="MG4wYzX_MJgmjz2E4Kdr-225">
          <mxGeometry relative="1" as="geometry" />
        </mxCell>
        <mxCell id="MG4wYzX_MJgmjz2E4Kdr-222" value="合成SD输出视频的路径&lt;div&gt;video_path = os.path.join(Zi_SD_output_path, video_name)&lt;/div&gt;" style="rounded=0;whiteSpace=wrap;html=1;" vertex="1" parent="bwkymRaFix-13DGY9n31-27">
          <mxGeometry x="520" y="1000" width="120" height="60" as="geometry" />
        </mxCell>
        <mxCell id="MG4wYzX_MJgmjz2E4Kdr-228" style="edgeStyle=orthogonalEdgeStyle;rounded=0;orthogonalLoop=1;jettySize=auto;html=1;exitX=0.5;exitY=1;exitDx=0;exitDy=0;entryX=0.5;entryY=0;entryDx=0;entryDy=0;" edge="1" parent="bwkymRaFix-13DGY9n31-27" source="MG4wYzX_MJgmjz2E4Kdr-225" target="MG4wYzX_MJgmjz2E4Kdr-227">
          <mxGeometry relative="1" as="geometry" />
        </mxCell>
        <mxCell id="MG4wYzX_MJgmjz2E4Kdr-225" value="video_path" style="shape=parallelogram;perimeter=parallelogramPerimeter;whiteSpace=wrap;html=1;fixedSize=1;" vertex="1" parent="bwkymRaFix-13DGY9n31-27">
          <mxGeometry x="520" y="1120" width="120" height="60" as="geometry" />
        </mxCell>
        <mxCell id="MG4wYzX_MJgmjz2E4Kdr-241" style="edgeStyle=orthogonalEdgeStyle;rounded=0;orthogonalLoop=1;jettySize=auto;html=1;exitX=0.5;exitY=1;exitDx=0;exitDy=0;entryX=0.5;entryY=0;entryDx=0;entryDy=0;" edge="1" parent="bwkymRaFix-13DGY9n31-27" source="MG4wYzX_MJgmjz2E4Kdr-227" target="MG4wYzX_MJgmjz2E4Kdr-240">
          <mxGeometry relative="1" as="geometry" />
        </mxCell>
        <mxCell id="MG4wYzX_MJgmjz2E4Kdr-227" value="将生成的视频增加到视频列表&lt;div&gt;video_files.append(video_path)&lt;/div&gt;" style="rounded=0;whiteSpace=wrap;html=1;" vertex="1" parent="bwkymRaFix-13DGY9n31-27">
          <mxGeometry x="520" y="1240" width="120" height="60" as="geometry" />
        </mxCell>
        <mxCell id="MG4wYzX_MJgmjz2E4Kdr-242" style="edgeStyle=orthogonalEdgeStyle;rounded=0;orthogonalLoop=1;jettySize=auto;html=1;exitX=0.5;exitY=1;exitDx=0;exitDy=0;entryX=0.25;entryY=0;entryDx=0;entryDy=0;" edge="1" parent="bwkymRaFix-13DGY9n31-27" source="MG4wYzX_MJgmjz2E4Kdr-240" target="MG4wYzX_MJgmjz2E4Kdr-227">
          <mxGeometry relative="1" as="geometry">
            <Array as="points">
              <mxPoint x="580" y="1440" />
              <mxPoint x="500" y="1440" />
              <mxPoint x="500" y="1220" />
              <mxPoint x="550" y="1220" />
            </Array>
          </mxGeometry>
        </mxCell>
        <mxCell id="MG4wYzX_MJgmjz2E4Kdr-249" style="edgeStyle=orthogonalEdgeStyle;rounded=0;orthogonalLoop=1;jettySize=auto;html=1;exitX=0.5;exitY=1;exitDx=0;exitDy=0;entryX=0.5;entryY=0;entryDx=0;entryDy=0;" edge="1" parent="bwkymRaFix-13DGY9n31-27" source="MG4wYzX_MJgmjz2E4Kdr-240" target="MG4wYzX_MJgmjz2E4Kdr-247">
          <mxGeometry relative="1" as="geometry" />
        </mxCell>
        <mxCell id="MG4wYzX_MJgmjz2E4Kdr-240" value="video_files" style="shape=parallelogram;perimeter=parallelogramPerimeter;whiteSpace=wrap;html=1;fixedSize=1;" vertex="1" parent="bwkymRaFix-13DGY9n31-27">
          <mxGeometry x="520" y="1360" width="120" height="60" as="geometry" />
        </mxCell>
        <mxCell id="MG4wYzX_MJgmjz2E4Kdr-250" style="edgeStyle=orthogonalEdgeStyle;rounded=0;orthogonalLoop=1;jettySize=auto;html=1;exitX=0.5;exitY=1;exitDx=0;exitDy=0;entryX=0.5;entryY=0;entryDx=0;entryDy=0;" edge="1" parent="bwkymRaFix-13DGY9n31-27" source="MG4wYzX_MJgmjz2E4Kdr-247" target="MG4wYzX_MJgmjz2E4Kdr-248">
          <mxGeometry relative="1" as="geometry" />
        </mxCell>
        <mxCell id="MG4wYzX_MJgmjz2E4Kdr-247" value="直至遍历结束" style="rounded=0;whiteSpace=wrap;html=1;" vertex="1" parent="bwkymRaFix-13DGY9n31-27">
          <mxGeometry x="520" y="1480" width="120" height="60" as="geometry" />
        </mxCell>
        <mxCell id="MG4wYzX_MJgmjz2E4Kdr-248" value="video_files" style="shape=parallelogram;perimeter=parallelogramPerimeter;whiteSpace=wrap;html=1;fixedSize=1;fillColor=#0050ef;fontColor=#ffffff;strokeColor=#001DBC;" vertex="1" parent="bwkymRaFix-13DGY9n31-27">
          <mxGeometry x="520" y="1600" width="120" height="60" as="geometry" />
        </mxCell>
        <mxCell id="bwkymRaFix-13DGY9n31-28" value="&lt;font style=&quot;font-size: 20px;&quot;&gt;视频拼接&lt;/font&gt;" style="swimlane;whiteSpace=wrap;html=1;" parent="1" vertex="1">
          <mxGeometry x="3280" y="80" width="400" height="1840" as="geometry" />
        </mxCell>
        <mxCell id="MG4wYzX_MJgmjz2E4Kdr-262" style="edgeStyle=orthogonalEdgeStyle;rounded=0;orthogonalLoop=1;jettySize=auto;html=1;exitX=0.5;exitY=1;exitDx=0;exitDy=0;entryX=0.75;entryY=0;entryDx=0;entryDy=0;" edge="1" parent="bwkymRaFix-13DGY9n31-28" source="MG4wYzX_MJgmjz2E4Kdr-243" target="MG4wYzX_MJgmjz2E4Kdr-261">
          <mxGeometry relative="1" as="geometry">
            <Array as="points">
              <mxPoint x="100" y="120" />
              <mxPoint x="180" y="120" />
              <mxPoint x="180" y="610" />
              <mxPoint x="130" y="610" />
            </Array>
          </mxGeometry>
        </mxCell>
        <mxCell id="MG4wYzX_MJgmjz2E4Kdr-243" value="加载视频用的临时存储&lt;div&gt;clip = []&lt;/div&gt;" style="shape=parallelogram;perimeter=parallelogramPerimeter;whiteSpace=wrap;html=1;fixedSize=1;" vertex="1" parent="bwkymRaFix-13DGY9n31-28">
          <mxGeometry x="40" y="40" width="120" height="60" as="geometry" />
        </mxCell>
        <mxCell id="MG4wYzX_MJgmjz2E4Kdr-256" style="edgeStyle=orthogonalEdgeStyle;rounded=0;orthogonalLoop=1;jettySize=auto;html=1;exitX=0.5;exitY=1;exitDx=0;exitDy=0;entryX=0.5;entryY=0;entryDx=0;entryDy=0;" edge="1" parent="bwkymRaFix-13DGY9n31-28" source="MG4wYzX_MJgmjz2E4Kdr-244" target="MG4wYzX_MJgmjz2E4Kdr-254">
          <mxGeometry relative="1" as="geometry" />
        </mxCell>
        <mxCell id="MG4wYzX_MJgmjz2E4Kdr-244" value="遍历video_files&lt;div&gt;for video in video_files&lt;/div&gt;" style="rounded=0;whiteSpace=wrap;html=1;" vertex="1" parent="bwkymRaFix-13DGY9n31-28">
          <mxGeometry x="40" y="160" width="120" height="60" as="geometry" />
        </mxCell>
        <mxCell id="MG4wYzX_MJgmjz2E4Kdr-258" style="edgeStyle=orthogonalEdgeStyle;rounded=0;orthogonalLoop=1;jettySize=auto;html=1;exitX=0.5;exitY=1;exitDx=0;exitDy=0;entryX=0.75;entryY=0;entryDx=0;entryDy=0;" edge="1" parent="bwkymRaFix-13DGY9n31-28" source="MG4wYzX_MJgmjz2E4Kdr-252" target="MG4wYzX_MJgmjz2E4Kdr-255">
          <mxGeometry relative="1" as="geometry">
            <Array as="points">
              <mxPoint x="260" y="370" />
              <mxPoint x="130" y="370" />
            </Array>
          </mxGeometry>
        </mxCell>
        <mxCell id="MG4wYzX_MJgmjz2E4Kdr-252" value="设定的分辨率&lt;div&gt;target_resolution = (960, 1280)&lt;/div&gt;" style="shape=parallelogram;perimeter=parallelogramPerimeter;whiteSpace=wrap;html=1;fixedSize=1;" vertex="1" parent="bwkymRaFix-13DGY9n31-28">
          <mxGeometry x="200" y="40" width="120" height="60" as="geometry" />
        </mxCell>
        <mxCell id="MG4wYzX_MJgmjz2E4Kdr-257" style="edgeStyle=orthogonalEdgeStyle;rounded=0;orthogonalLoop=1;jettySize=auto;html=1;exitX=0.5;exitY=1;exitDx=0;exitDy=0;entryX=0.5;entryY=0;entryDx=0;entryDy=0;" edge="1" parent="bwkymRaFix-13DGY9n31-28" source="MG4wYzX_MJgmjz2E4Kdr-254" target="MG4wYzX_MJgmjz2E4Kdr-255">
          <mxGeometry relative="1" as="geometry" />
        </mxCell>
        <mxCell id="MG4wYzX_MJgmjz2E4Kdr-254" value="video" style="shape=parallelogram;perimeter=parallelogramPerimeter;whiteSpace=wrap;html=1;fixedSize=1;" vertex="1" parent="bwkymRaFix-13DGY9n31-28">
          <mxGeometry x="40" y="278" width="120" height="60" as="geometry" />
        </mxCell>
        <mxCell id="MG4wYzX_MJgmjz2E4Kdr-260" style="edgeStyle=orthogonalEdgeStyle;rounded=0;orthogonalLoop=1;jettySize=auto;html=1;exitX=0.5;exitY=1;exitDx=0;exitDy=0;entryX=0.5;entryY=0;entryDx=0;entryDy=0;" edge="1" parent="bwkymRaFix-13DGY9n31-28" source="MG4wYzX_MJgmjz2E4Kdr-255" target="MG4wYzX_MJgmjz2E4Kdr-259">
          <mxGeometry relative="1" as="geometry" />
        </mxCell>
        <mxCell id="MG4wYzX_MJgmjz2E4Kdr-255" value="将视频调整为设定的分辨率&lt;div&gt;clip = VideoFileClip(video).resize(target_resolution)&lt;/div&gt;" style="rounded=0;whiteSpace=wrap;html=1;" vertex="1" parent="bwkymRaFix-13DGY9n31-28">
          <mxGeometry x="40" y="400" width="120" height="60" as="geometry" />
        </mxCell>
        <mxCell id="MG4wYzX_MJgmjz2E4Kdr-263" style="edgeStyle=orthogonalEdgeStyle;rounded=0;orthogonalLoop=1;jettySize=auto;html=1;exitX=0.5;exitY=1;exitDx=0;exitDy=0;entryX=0.5;entryY=0;entryDx=0;entryDy=0;" edge="1" parent="bwkymRaFix-13DGY9n31-28" source="MG4wYzX_MJgmjz2E4Kdr-259" target="MG4wYzX_MJgmjz2E4Kdr-261">
          <mxGeometry relative="1" as="geometry" />
        </mxCell>
        <mxCell id="MG4wYzX_MJgmjz2E4Kdr-259" value="clip" style="shape=parallelogram;perimeter=parallelogramPerimeter;whiteSpace=wrap;html=1;fixedSize=1;" vertex="1" parent="bwkymRaFix-13DGY9n31-28">
          <mxGeometry x="40" y="520" width="120" height="60" as="geometry" />
        </mxCell>
        <mxCell id="MG4wYzX_MJgmjz2E4Kdr-265" style="edgeStyle=orthogonalEdgeStyle;rounded=0;orthogonalLoop=1;jettySize=auto;html=1;exitX=0.5;exitY=1;exitDx=0;exitDy=0;entryX=0.5;entryY=0;entryDx=0;entryDy=0;" edge="1" parent="bwkymRaFix-13DGY9n31-28" source="MG4wYzX_MJgmjz2E4Kdr-261" target="MG4wYzX_MJgmjz2E4Kdr-264">
          <mxGeometry relative="1" as="geometry" />
        </mxCell>
        <mxCell id="MG4wYzX_MJgmjz2E4Kdr-261" value="将生成的clip增加到clips列表&lt;div&gt;clips.append(clip)&lt;/div&gt;" style="rounded=0;whiteSpace=wrap;html=1;" vertex="1" parent="bwkymRaFix-13DGY9n31-28">
          <mxGeometry x="40" y="640" width="120" height="60" as="geometry" />
        </mxCell>
        <mxCell id="MG4wYzX_MJgmjz2E4Kdr-267" style="edgeStyle=orthogonalEdgeStyle;rounded=0;orthogonalLoop=1;jettySize=auto;html=1;exitX=0.5;exitY=1;exitDx=0;exitDy=0;entryX=0.75;entryY=0;entryDx=0;entryDy=0;" edge="1" parent="bwkymRaFix-13DGY9n31-28" source="MG4wYzX_MJgmjz2E4Kdr-264" target="MG4wYzX_MJgmjz2E4Kdr-261">
          <mxGeometry relative="1" as="geometry">
            <Array as="points">
              <mxPoint x="100" y="850" />
              <mxPoint x="180" y="850" />
              <mxPoint x="180" y="620" />
              <mxPoint x="130" y="620" />
            </Array>
          </mxGeometry>
        </mxCell>
        <mxCell id="MG4wYzX_MJgmjz2E4Kdr-269" style="edgeStyle=orthogonalEdgeStyle;rounded=0;orthogonalLoop=1;jettySize=auto;html=1;exitX=0.5;exitY=1;exitDx=0;exitDy=0;entryX=0.5;entryY=0;entryDx=0;entryDy=0;" edge="1" parent="bwkymRaFix-13DGY9n31-28" source="MG4wYzX_MJgmjz2E4Kdr-264" target="MG4wYzX_MJgmjz2E4Kdr-268">
          <mxGeometry relative="1" as="geometry" />
        </mxCell>
        <mxCell id="MG4wYzX_MJgmjz2E4Kdr-264" value="clips" style="shape=parallelogram;perimeter=parallelogramPerimeter;whiteSpace=wrap;html=1;fixedSize=1;" vertex="1" parent="bwkymRaFix-13DGY9n31-28">
          <mxGeometry x="40" y="760" width="120" height="60" as="geometry" />
        </mxCell>
        <mxCell id="MG4wYzX_MJgmjz2E4Kdr-271" style="edgeStyle=orthogonalEdgeStyle;rounded=0;orthogonalLoop=1;jettySize=auto;html=1;exitX=0.5;exitY=1;exitDx=0;exitDy=0;" edge="1" parent="bwkymRaFix-13DGY9n31-28" source="MG4wYzX_MJgmjz2E4Kdr-268" target="MG4wYzX_MJgmjz2E4Kdr-270">
          <mxGeometry relative="1" as="geometry" />
        </mxCell>
        <mxCell id="MG4wYzX_MJgmjz2E4Kdr-268" value="直至遍历结束" style="rounded=0;whiteSpace=wrap;html=1;" vertex="1" parent="bwkymRaFix-13DGY9n31-28">
          <mxGeometry x="40" y="880" width="120" height="60" as="geometry" />
        </mxCell>
        <mxCell id="MG4wYzX_MJgmjz2E4Kdr-273" style="edgeStyle=orthogonalEdgeStyle;rounded=0;orthogonalLoop=1;jettySize=auto;html=1;exitX=0.5;exitY=1;exitDx=0;exitDy=0;entryX=0.5;entryY=0;entryDx=0;entryDy=0;" edge="1" parent="bwkymRaFix-13DGY9n31-28" source="MG4wYzX_MJgmjz2E4Kdr-270" target="MG4wYzX_MJgmjz2E4Kdr-272">
          <mxGeometry relative="1" as="geometry" />
        </mxCell>
        <mxCell id="MG4wYzX_MJgmjz2E4Kdr-270" value="clips" style="shape=parallelogram;perimeter=parallelogramPerimeter;whiteSpace=wrap;html=1;fixedSize=1;" vertex="1" parent="bwkymRaFix-13DGY9n31-28">
          <mxGeometry x="40" y="1000" width="120" height="60" as="geometry" />
        </mxCell>
        <mxCell id="MG4wYzX_MJgmjz2E4Kdr-275" style="edgeStyle=orthogonalEdgeStyle;rounded=0;orthogonalLoop=1;jettySize=auto;html=1;exitX=0.5;exitY=1;exitDx=0;exitDy=0;entryX=0.5;entryY=0;entryDx=0;entryDy=0;" edge="1" parent="bwkymRaFix-13DGY9n31-28" source="MG4wYzX_MJgmjz2E4Kdr-272" target="MG4wYzX_MJgmjz2E4Kdr-274">
          <mxGeometry relative="1" as="geometry" />
        </mxCell>
        <mxCell id="MG4wYzX_MJgmjz2E4Kdr-272" value="合并视频片段，使用method = &#39;compose&#39;&lt;div&gt;final_clip = concatenate_videoclips(clips, method = &#39;compose&#39;)&lt;/div&gt;" style="rounded=0;whiteSpace=wrap;html=1;" vertex="1" parent="bwkymRaFix-13DGY9n31-28">
          <mxGeometry x="40" y="1120" width="120" height="60" as="geometry" />
        </mxCell>
        <mxCell id="MG4wYzX_MJgmjz2E4Kdr-282" style="edgeStyle=orthogonalEdgeStyle;rounded=0;orthogonalLoop=1;jettySize=auto;html=1;exitX=0.5;exitY=1;exitDx=0;exitDy=0;" edge="1" parent="bwkymRaFix-13DGY9n31-28" source="MG4wYzX_MJgmjz2E4Kdr-274" target="MG4wYzX_MJgmjz2E4Kdr-281">
          <mxGeometry relative="1" as="geometry" />
        </mxCell>
        <mxCell id="MG4wYzX_MJgmjz2E4Kdr-274" value="final_clip" style="shape=parallelogram;perimeter=parallelogramPerimeter;whiteSpace=wrap;html=1;fixedSize=1;" vertex="1" parent="bwkymRaFix-13DGY9n31-28">
          <mxGeometry x="40" y="1240" width="120" height="60" as="geometry" />
        </mxCell>
        <mxCell id="MG4wYzX_MJgmjz2E4Kdr-278" style="edgeStyle=orthogonalEdgeStyle;rounded=0;orthogonalLoop=1;jettySize=auto;html=1;exitX=0.5;exitY=1;exitDx=0;exitDy=0;entryX=0.5;entryY=0;entryDx=0;entryDy=0;" edge="1" parent="bwkymRaFix-13DGY9n31-28" source="MG4wYzX_MJgmjz2E4Kdr-276" target="MG4wYzX_MJgmjz2E4Kdr-277">
          <mxGeometry relative="1" as="geometry" />
        </mxCell>
        <mxCell id="MG4wYzX_MJgmjz2E4Kdr-276" value="合成最终视频的路径&lt;div&gt;VideoMerging_video_path = os.path.join(VideoMerging_output_path, os.path.splitext(text_file_name)[0] + &#39;.mp4&#39;)&lt;/div&gt;" style="rounded=0;whiteSpace=wrap;html=1;" vertex="1" parent="bwkymRaFix-13DGY9n31-28">
          <mxGeometry x="200" y="1360" width="120" height="60" as="geometry" />
        </mxCell>
        <mxCell id="MG4wYzX_MJgmjz2E4Kdr-283" style="edgeStyle=orthogonalEdgeStyle;rounded=0;orthogonalLoop=1;jettySize=auto;html=1;exitX=0.5;exitY=1;exitDx=0;exitDy=0;entryX=0.75;entryY=0;entryDx=0;entryDy=0;" edge="1" parent="bwkymRaFix-13DGY9n31-28" source="MG4wYzX_MJgmjz2E4Kdr-277" target="MG4wYzX_MJgmjz2E4Kdr-281">
          <mxGeometry relative="1" as="geometry" />
        </mxCell>
        <mxCell id="MG4wYzX_MJgmjz2E4Kdr-277" value="VideoMerging_video_path" style="shape=parallelogram;perimeter=parallelogramPerimeter;whiteSpace=wrap;html=1;fixedSize=1;" vertex="1" parent="bwkymRaFix-13DGY9n31-28">
          <mxGeometry x="200" y="1480" width="120" height="60" as="geometry" />
        </mxCell>
        <mxCell id="MG4wYzX_MJgmjz2E4Kdr-285" style="edgeStyle=orthogonalEdgeStyle;rounded=0;orthogonalLoop=1;jettySize=auto;html=1;exitX=0.5;exitY=1;exitDx=0;exitDy=0;entryX=0.5;entryY=0;entryDx=0;entryDy=0;" edge="1" parent="bwkymRaFix-13DGY9n31-28" source="MG4wYzX_MJgmjz2E4Kdr-281" target="MG4wYzX_MJgmjz2E4Kdr-284">
          <mxGeometry relative="1" as="geometry" />
        </mxCell>
        <mxCell id="MG4wYzX_MJgmjz2E4Kdr-281" value="保存视频&lt;div&gt;final_clip.write_videofile(VideoMerging_video_path, codec = &#39;libx264&#39;, audio_codec = &#39;aac&#39;, threads = 4)&lt;/div&gt;" style="rounded=0;whiteSpace=wrap;html=1;" vertex="1" parent="bwkymRaFix-13DGY9n31-28">
          <mxGeometry x="40" y="1600" width="120" height="60" as="geometry" />
        </mxCell>
        <mxCell id="MG4wYzX_MJgmjz2E4Kdr-284" value="最终视频(.mp4)" style="shape=parallelogram;perimeter=parallelogramPerimeter;whiteSpace=wrap;html=1;fixedSize=1;" vertex="1" parent="bwkymRaFix-13DGY9n31-28">
          <mxGeometry x="40" y="1720" width="120" height="60" as="geometry" />
        </mxCell>
        <mxCell id="bwkymRaFix-13DGY9n31-29" value="&lt;font style=&quot;font-size: 20px;&quot;&gt;结束&lt;/font&gt;" style="swimlane;whiteSpace=wrap;html=1;" parent="1" vertex="1">
          <mxGeometry x="3680" y="80" width="200" height="1840" as="geometry" />
        </mxCell>
        <mxCell id="MG4wYzX_MJgmjz2E4Kdr-286" value="结束" style="rounded=1;whiteSpace=wrap;html=1;" vertex="1" parent="bwkymRaFix-13DGY9n31-29">
          <mxGeometry x="40" y="40" width="120" height="60" as="geometry" />
        </mxCell>
        <mxCell id="MG4wYzX_MJgmjz2E4Kdr-47" style="edgeStyle=orthogonalEdgeStyle;rounded=0;orthogonalLoop=1;jettySize=auto;html=1;exitX=0.5;exitY=1;exitDx=0;exitDy=0;entryX=0.5;entryY=0;entryDx=0;entryDy=0;fillColor=#dae8fc;strokeColor=#6c8ebf;" edge="1" parent="1" source="bwkymRaFix-13DGY9n31-35" target="MG4wYzX_MJgmjz2E4Kdr-46">
          <mxGeometry relative="1" as="geometry" />
        </mxCell>
        <mxCell id="MG4wYzX_MJgmjz2E4Kdr-64" style="edgeStyle=orthogonalEdgeStyle;rounded=0;orthogonalLoop=1;jettySize=auto;html=1;exitX=0.5;exitY=1;exitDx=0;exitDy=0;entryX=0.5;entryY=0;entryDx=0;entryDy=0;" edge="1" parent="1" source="MG4wYzX_MJgmjz2E4Kdr-57" target="MG4wYzX_MJgmjz2E4Kdr-63">
          <mxGeometry relative="1" as="geometry">
            <Array as="points">
              <mxPoint x="500" y="1050" />
              <mxPoint x="580" y="1050" />
              <mxPoint x="580" y="210" />
              <mxPoint x="700" y="210" />
            </Array>
          </mxGeometry>
        </mxCell>
        <mxCell id="MG4wYzX_MJgmjz2E4Kdr-112" style="edgeStyle=orthogonalEdgeStyle;rounded=0;orthogonalLoop=1;jettySize=auto;html=1;exitX=0.5;exitY=1;exitDx=0;exitDy=0;entryX=0.25;entryY=0;entryDx=0;entryDy=0;fillColor=#0050ef;strokeColor=#001DBC;" edge="1" parent="1" source="MG4wYzX_MJgmjz2E4Kdr-9" target="MG4wYzX_MJgmjz2E4Kdr-101">
          <mxGeometry relative="1" as="geometry">
            <Array as="points">
              <mxPoint x="-660" y="1170" />
              <mxPoint x="830" y="1170" />
            </Array>
          </mxGeometry>
        </mxCell>
        <mxCell id="MG4wYzX_MJgmjz2E4Kdr-113" style="edgeStyle=orthogonalEdgeStyle;rounded=0;orthogonalLoop=1;jettySize=auto;html=1;exitX=0.5;exitY=1;exitDx=0;exitDy=0;entryX=0.25;entryY=0;entryDx=0;entryDy=0;fillColor=#6a00ff;strokeColor=#3700CC;" edge="1" parent="1" source="MG4wYzX_MJgmjz2E4Kdr-21" target="MG4wYzX_MJgmjz2E4Kdr-102">
          <mxGeometry relative="1" as="geometry">
            <Array as="points">
              <mxPoint x="-460" y="1140" />
              <mxPoint x="990" y="1140" />
            </Array>
          </mxGeometry>
        </mxCell>
        <mxCell id="MG4wYzX_MJgmjz2E4Kdr-114" style="edgeStyle=orthogonalEdgeStyle;rounded=0;orthogonalLoop=1;jettySize=auto;html=1;exitX=0.5;exitY=1;exitDx=0;exitDy=0;entryX=0.25;entryY=0;entryDx=0;entryDy=0;fillColor=#1ba1e2;strokeColor=#006EAF;" edge="1" parent="1" source="MG4wYzX_MJgmjz2E4Kdr-28" target="MG4wYzX_MJgmjz2E4Kdr-103">
          <mxGeometry relative="1" as="geometry">
            <Array as="points">
              <mxPoint x="-260" y="1110" />
              <mxPoint x="1150" y="1110" />
            </Array>
          </mxGeometry>
        </mxCell>
        <mxCell id="MG4wYzX_MJgmjz2E4Kdr-156" style="edgeStyle=orthogonalEdgeStyle;rounded=0;orthogonalLoop=1;jettySize=auto;html=1;exitX=0.5;exitY=1;exitDx=0;exitDy=0;entryX=0.25;entryY=0;entryDx=0;entryDy=0;strokeColor=#8282ff;" edge="1" parent="1" source="MG4wYzX_MJgmjz2E4Kdr-91" target="MG4wYzX_MJgmjz2E4Kdr-140">
          <mxGeometry relative="1" as="geometry">
            <Array as="points">
              <mxPoint x="1020" y="1050" />
              <mxPoint x="1250" y="1050" />
              <mxPoint x="1250" y="210" />
              <mxPoint x="1510" y="210" />
            </Array>
          </mxGeometry>
        </mxCell>
        <mxCell id="MG4wYzX_MJgmjz2E4Kdr-158" style="edgeStyle=orthogonalEdgeStyle;rounded=0;orthogonalLoop=1;jettySize=auto;html=1;exitX=0.5;exitY=1;exitDx=0;exitDy=0;entryX=0.25;entryY=0;entryDx=0;entryDy=0;strokeColor=#8282ff;" edge="1" parent="1" source="MG4wYzX_MJgmjz2E4Kdr-91" target="MG4wYzX_MJgmjz2E4Kdr-141">
          <mxGeometry relative="1" as="geometry">
            <Array as="points">
              <mxPoint x="1020" y="1050" />
              <mxPoint x="1250" y="1050" />
              <mxPoint x="1250" y="210" />
              <mxPoint x="1670" y="210" />
            </Array>
          </mxGeometry>
        </mxCell>
        <mxCell id="MG4wYzX_MJgmjz2E4Kdr-159" style="edgeStyle=orthogonalEdgeStyle;rounded=0;orthogonalLoop=1;jettySize=auto;html=1;exitX=0.5;exitY=1;exitDx=0;exitDy=0;entryX=0.25;entryY=0;entryDx=0;entryDy=0;strokeColor=#8282ff;" edge="1" parent="1" source="MG4wYzX_MJgmjz2E4Kdr-91" target="MG4wYzX_MJgmjz2E4Kdr-142">
          <mxGeometry relative="1" as="geometry">
            <Array as="points">
              <mxPoint x="1020" y="1050" />
              <mxPoint x="1250" y="1050" />
              <mxPoint x="1250" y="210" />
              <mxPoint x="1830" y="210" />
            </Array>
          </mxGeometry>
        </mxCell>
        <mxCell id="MG4wYzX_MJgmjz2E4Kdr-160" style="edgeStyle=orthogonalEdgeStyle;rounded=0;orthogonalLoop=1;jettySize=auto;html=1;exitX=0.5;exitY=1;exitDx=0;exitDy=0;entryX=0.25;entryY=0;entryDx=0;entryDy=0;strokeColor=#8282ff;" edge="1" parent="1" source="MG4wYzX_MJgmjz2E4Kdr-91" target="MG4wYzX_MJgmjz2E4Kdr-154">
          <mxGeometry relative="1" as="geometry">
            <Array as="points">
              <mxPoint x="1020" y="1050" />
              <mxPoint x="1250" y="1050" />
              <mxPoint x="1250" y="210" />
              <mxPoint x="1990" y="210" />
            </Array>
          </mxGeometry>
        </mxCell>
        <mxCell id="MG4wYzX_MJgmjz2E4Kdr-177" style="edgeStyle=orthogonalEdgeStyle;rounded=0;orthogonalLoop=1;jettySize=auto;html=1;exitX=0.5;exitY=1;exitDx=0;exitDy=0;entryX=0.977;entryY=-0.012;entryDx=0;entryDy=0;entryPerimeter=0;fillColor=#b1ddf0;strokeColor=#10739e;" edge="1" parent="1" source="MG4wYzX_MJgmjz2E4Kdr-117" target="MG4wYzX_MJgmjz2E4Kdr-176">
          <mxGeometry relative="1" as="geometry">
            <mxPoint x="1350" y="600" as="targetPoint" />
            <Array as="points">
              <mxPoint x="1020" y="1520" />
              <mxPoint x="1260" y="1520" />
              <mxPoint x="1260" y="550" />
              <mxPoint x="2375" y="550" />
            </Array>
          </mxGeometry>
        </mxCell>
        <mxCell id="MG4wYzX_MJgmjz2E4Kdr-187" style="edgeStyle=orthogonalEdgeStyle;rounded=0;orthogonalLoop=1;jettySize=auto;html=1;exitX=0.5;exitY=1;exitDx=0;exitDy=0;entryX=0.75;entryY=0;entryDx=0;entryDy=0;fillColor=#e51400;strokeColor=#B20000;" edge="1" parent="1" source="MG4wYzX_MJgmjz2E4Kdr-185" target="MG4wYzX_MJgmjz2E4Kdr-176">
          <mxGeometry relative="1" as="geometry">
            <Array as="points">
              <mxPoint x="1020" y="1760" />
              <mxPoint x="1270" y="1760" />
              <mxPoint x="1270" y="570" />
              <mxPoint x="2130" y="570" />
            </Array>
          </mxGeometry>
        </mxCell>
        <mxCell id="MG4wYzX_MJgmjz2E4Kdr-193" style="edgeStyle=orthogonalEdgeStyle;rounded=0;orthogonalLoop=1;jettySize=auto;html=1;exitX=0.5;exitY=1;exitDx=0;exitDy=0;entryX=0.5;entryY=0;entryDx=0;entryDy=0;fillColor=#b1ddf0;strokeColor=#10739e;" edge="1" parent="1" source="MG4wYzX_MJgmjz2E4Kdr-117" target="MG4wYzX_MJgmjz2E4Kdr-192">
          <mxGeometry relative="1" as="geometry">
            <Array as="points">
              <mxPoint x="1020" y="1520" />
              <mxPoint x="1260" y="1520" />
              <mxPoint x="1260" y="550" />
              <mxPoint x="2420" y="550" />
              <mxPoint x="2420" y="218" />
              <mxPoint x="2540" y="218" />
            </Array>
          </mxGeometry>
        </mxCell>
        <mxCell id="MG4wYzX_MJgmjz2E4Kdr-204" style="edgeStyle=orthogonalEdgeStyle;rounded=0;orthogonalLoop=1;jettySize=auto;html=1;exitX=0.5;exitY=1;exitDx=0;exitDy=0;entryX=0.25;entryY=0;entryDx=0;entryDy=0;strokeColor=#8282ff;" edge="1" parent="1" source="MG4wYzX_MJgmjz2E4Kdr-91" target="MG4wYzX_MJgmjz2E4Kdr-201">
          <mxGeometry relative="1" as="geometry">
            <Array as="points">
              <mxPoint x="1020" y="1050" />
              <mxPoint x="1250" y="1050" />
              <mxPoint x="1250" y="210" />
              <mxPoint x="2830" y="210" />
            </Array>
          </mxGeometry>
        </mxCell>
        <mxCell id="MG4wYzX_MJgmjz2E4Kdr-212" style="edgeStyle=orthogonalEdgeStyle;rounded=0;orthogonalLoop=1;jettySize=auto;html=1;exitX=0.5;exitY=1;exitDx=0;exitDy=0;entryX=0.606;entryY=0.005;entryDx=0;entryDy=0;entryPerimeter=0;fillColor=#dae8fc;gradientColor=#7ea6e0;strokeColor=#6c8ebf;" edge="1" parent="1" source="MG4wYzX_MJgmjz2E4Kdr-118" target="MG4wYzX_MJgmjz2E4Kdr-205">
          <mxGeometry relative="1" as="geometry">
            <Array as="points">
              <mxPoint x="1180" y="1540" />
              <mxPoint x="2420" y="1540" />
              <mxPoint x="2420" y="570" />
              <mxPoint x="2941" y="570" />
              <mxPoint x="2941" y="600" />
            </Array>
          </mxGeometry>
        </mxCell>
        <mxCell id="MG4wYzX_MJgmjz2E4Kdr-223" style="edgeStyle=orthogonalEdgeStyle;rounded=0;orthogonalLoop=1;jettySize=auto;html=1;exitX=0.5;exitY=1;exitDx=0;exitDy=0;entryX=0.25;entryY=0;entryDx=0;entryDy=0;fillColor=#dae8fc;strokeColor=#6c8ebf;gradientColor=#7ea6e0;" edge="1" parent="1" source="MG4wYzX_MJgmjz2E4Kdr-118" target="MG4wYzX_MJgmjz2E4Kdr-222">
          <mxGeometry relative="1" as="geometry">
            <Array as="points">
              <mxPoint x="1180" y="1540" />
              <mxPoint x="2420" y="1540" />
              <mxPoint x="2420" y="1060" />
              <mxPoint x="2990" y="1060" />
            </Array>
          </mxGeometry>
        </mxCell>
        <mxCell id="MG4wYzX_MJgmjz2E4Kdr-239" style="edgeStyle=orthogonalEdgeStyle;rounded=0;orthogonalLoop=1;jettySize=auto;html=1;exitX=0.5;exitY=1;exitDx=0;exitDy=0;entryX=0.25;entryY=0;entryDx=0;entryDy=0;" edge="1" parent="1" source="MG4wYzX_MJgmjz2E4Kdr-34" target="MG4wYzX_MJgmjz2E4Kdr-227">
          <mxGeometry relative="1" as="geometry">
            <Array as="points">
              <mxPoint x="140" y="1290" />
              <mxPoint x="2990" y="1290" />
            </Array>
          </mxGeometry>
        </mxCell>
        <mxCell id="MG4wYzX_MJgmjz2E4Kdr-251" style="edgeStyle=orthogonalEdgeStyle;rounded=0;orthogonalLoop=1;jettySize=auto;html=1;exitX=0.5;exitY=1;exitDx=0;exitDy=0;entryX=0.5;entryY=0;entryDx=0;entryDy=0;fillColor=#0050ef;strokeColor=#001DBC;" edge="1" parent="1" source="MG4wYzX_MJgmjz2E4Kdr-248" target="MG4wYzX_MJgmjz2E4Kdr-244">
          <mxGeometry relative="1" as="geometry">
            <Array as="points">
              <mxPoint x="3020" y="1770" />
              <mxPoint x="3270" y="1770" />
              <mxPoint x="3270" y="220" />
              <mxPoint x="3380" y="220" />
            </Array>
          </mxGeometry>
        </mxCell>
        <mxCell id="MG4wYzX_MJgmjz2E4Kdr-279" style="edgeStyle=orthogonalEdgeStyle;rounded=0;orthogonalLoop=1;jettySize=auto;html=1;exitX=0.5;exitY=1;exitDx=0;exitDy=0;entryX=0.25;entryY=0;entryDx=0;entryDy=0;fillColor=#a20025;strokeColor=#6F0000;" edge="1" parent="1" source="MG4wYzX_MJgmjz2E4Kdr-237" target="MG4wYzX_MJgmjz2E4Kdr-276">
          <mxGeometry relative="1" as="geometry">
            <mxPoint x="3480" y="1224" as="targetPoint" />
            <Array as="points">
              <mxPoint x="-60" y="1100" />
              <mxPoint x="3300" y="1100" />
              <mxPoint x="3300" y="1420" />
              <mxPoint x="3510" y="1420" />
            </Array>
          </mxGeometry>
        </mxCell>
        <mxCell id="MG4wYzX_MJgmjz2E4Kdr-280" style="edgeStyle=orthogonalEdgeStyle;rounded=0;orthogonalLoop=1;jettySize=auto;html=1;exitX=0.5;exitY=1;exitDx=0;exitDy=0;entryX=0.75;entryY=0;entryDx=0;entryDy=0;fillColor=#e1d5e7;strokeColor=#9673a6;" edge="1" parent="1" source="bwkymRaFix-13DGY9n31-40" target="MG4wYzX_MJgmjz2E4Kdr-276">
          <mxGeometry relative="1" as="geometry">
            <Array as="points">
              <mxPoint x="-860" y="470" />
              <mxPoint x="60" y="470" />
              <mxPoint x="60" y="1400" />
              <mxPoint x="3570" y="1400" />
            </Array>
          </mxGeometry>
        </mxCell>
        <mxCell id="MG4wYzX_MJgmjz2E4Kdr-287" value="&lt;font style=&quot;font-size: 36px;&quot;&gt;AI主播&lt;/font&gt;" style="swimlane;whiteSpace=wrap;html=1;startSize=80;" vertex="1" parent="1">
          <mxGeometry x="-1120" width="5000" height="1920" as="geometry" />
        </mxCell>
      </root>
    </mxGraphModel>
  </diagram>
</mxfile>
